<svg width="150" height="114" viewBox="0 0 150 114" fill="none" xmlns="http://www.w3.org/2000/svg">
<path d="M38.4431 112H111.329M38.4431 112V38.6667M38.4431 112H2V38.6667H38.4431M111.329 112V38.6667M111.329 112H147.772V38.6667H111.329M38.4431 38.6667V2H111.329V38.6667M49.376 20.3333V16.6667H63.9532V24H49.376V20.3333ZM85.8191 16.6667H100.396V24H85.8191V16.6667Z" stroke="white" stroke-width="3"/>
<path d="M63.9629 35.0894H49.3984V41.3495H63.9629V35.0894Z" stroke="white" stroke-width="3"/>
<path d="M100.374 35.0894H85.8096V41.3495H100.374V35.0894Z" stroke="white" stroke-width="3"/>
<path d="M63.9629 72.6504H49.3984V78.9106H63.9629V72.6504Z" stroke="white" stroke-width="3"/>
<path d="M100.374 72.6504H85.8096V78.9106H100.374V72.6504Z" stroke="white" stroke-width="3"/>
<path d="M63.9629 53.8701H49.3984V60.1303H63.9629V53.8701Z" stroke="white" stroke-width="3"/>
<path d="M100.374 53.8701H85.8096V60.1303H100.374V53.8701Z" stroke="white" stroke-width="3"/>
<path d="M63.9629 90.5366H49.3984V96.7968H63.9629V90.5366Z" stroke="white" stroke-width="3"/>
<path d="M100.374 90.5366H85.8096V96.7968H100.374V90.5366Z" stroke="white" stroke-width="3"/>
</svg>
