<svg width="148" height="114" viewBox="0 0 148 114" fill="none" xmlns="http://www.w3.org/2000/svg">
<path d="M24.4586 12.918H145.559V112H13.4495C9.77983 112 2.44043 109.798 2.44043 100.991C2.44043 92.1835 9.77983 89.9816 13.4495 89.9816C17.1192 89.9816 24.4586 92.1835 24.4586 100.991" stroke="white" stroke-width="3"/>
<path d="M2.44043 13.0091C2.44043 9.3394 4.64225 2 13.4495 2C22.2568 2 24.4586 9.3394 24.4586 13.0091V101.082" stroke="white" stroke-width="3"/>
<path d="M2.44043 13.0093V101.082" stroke="white" stroke-width="3"/>
<circle cx="138.007" cy="22.0165" r="1.81968" fill="white"/>
<circle cx="138.007" cy="31.1146" r="1.81968" fill="white"/>
<circle cx="138.007" cy="40.2132" r="1.81968" fill="white"/>
<circle cx="138.007" cy="49.3119" r="1.81968" fill="white"/>
<circle cx="138.007" cy="58.41" r="1.81968" fill="white"/>
<circle cx="138.007" cy="67.5087" r="1.81968" fill="white"/>
<circle cx="138.007" cy="76.6068" r="1.81968" fill="white"/>
<circle cx="138.007" cy="85.7054" r="1.81968" fill="white"/>
<circle cx="138.007" cy="94.8036" r="1.81968" fill="white"/>
<circle cx="138.007" cy="103.903" r="1.81968" fill="white"/>
<circle cx="10.6283" cy="11.0985" r="1.81968" fill="white"/>
<circle cx="10.6283" cy="20.1966" r="1.81968" fill="white"/>
<circle cx="10.6283" cy="29.2953" r="1.81968" fill="white"/>
<circle cx="10.6283" cy="38.3939" r="1.81968" fill="white"/>
<circle cx="10.6283" cy="47.4925" r="1.81968" fill="white"/>
<circle cx="10.6283" cy="56.5907" r="1.81968" fill="white"/>
<circle cx="10.6283" cy="65.6888" r="1.81968" fill="white"/>
<circle cx="10.6283" cy="74.7875" r="1.81968" fill="white"/>
<circle cx="10.6283" cy="83.8856" r="1.81968" fill="white"/>
<path d="M44.2939 71.1482L72.3171 43.2463L86.3287 57.1972L114.352 29.2954M114.352 29.2954H100.34M114.352 29.2954V43.2463" stroke="white" stroke-width="3"/>
<path d="M45.2041 83.8862H117.991" stroke="white" stroke-width="3"/>
<path d="M45.2041 92.9844H90.6962" stroke="white" stroke-width="3"/>
</svg>
