<svg width="138" height="116" viewBox="0 0 138 116" fill="none" xmlns="http://www.w3.org/2000/svg">
<path d="M91.5 79.8366L3.5 112L40.3977 28.231L123.231 29.1415V68.2945L113 72.016" stroke="white" stroke-width="3"/>
<path d="M43.113 2L3.07715 112L135.923 36.5455V2H43.113Z" stroke="white" stroke-width="3"/>
<path d="M113.478 75.7196C113.478 77.1677 112.788 79.6001 111.585 82.6261C110.41 85.5835 108.833 88.8995 107.243 92.0217C105.656 95.1393 104.067 98.041 102.873 100.165C102.624 100.608 102.392 101.018 102.182 101.388C101.971 101.018 101.739 100.608 101.49 100.165C100.297 98.041 98.7074 95.1393 97.1198 92.0217C95.53 88.8995 93.9536 85.5835 92.7782 82.6261C91.5756 79.6001 90.8848 77.1677 90.8848 75.7196C90.8848 69.4806 95.9425 64.4229 102.182 64.4229C108.421 64.4229 113.478 69.4806 113.478 75.7196Z" stroke="white" stroke-width="3"/>
<circle cx="102.182" cy="75.7201" r="4.64245" stroke="white" stroke-width="3"/>
</svg>
