<svg width="130" height="112" viewBox="0 0 130 112" fill="none" xmlns="http://www.w3.org/2000/svg">
<path d="M64.9997 9.85714C64.9997 7.2381 71.2854 2 96.4283 2C121.571 2 127.857 7.2381 127.857 9.85714V112C127.857 109.381 121.571 104.143 96.4283 104.143C71.2854 104.143 64.9997 109.381 64.9997 112C64.9997 111.975 64.9992 111.95 64.998 111.925M64.9997 9.85714C64.9997 7.2381 58.714 2 33.5711 2C8.42829 2 2.14258 7.2381 2.14258 9.85714V112C2.14258 109.381 8.42829 104.143 33.5711 104.143C58.4763 104.143 64.8792 109.282 64.998 111.925M64.9997 9.85714L64.998 111.925" stroke="white" stroke-width="3"/>
<path d="M10 37.3573C10 36.0478 11.5714 33.4287 17.8571 33.4287C24.1429 33.4287 25.7143 36.0478 25.7143 37.3573" stroke="white" stroke-width="3"/>
<path d="M13.9287 25.5716C13.9287 28.7145 16.5478 29.5002 17.8573 29.5002C19.1668 29.5002 21.7859 28.7145 21.7859 25.5716C21.7859 22.4288 19.1668 21.6431 17.8573 21.6431C16.5478 21.6431 13.9287 22.4288 13.9287 25.5716Z" stroke="white" stroke-width="3"/>
<path d="M41.4287 37.3573C41.4287 36.0478 43.0001 33.4287 49.2859 33.4287C55.5716 33.4287 57.143 36.0478 57.143 37.3573" stroke="white" stroke-width="3"/>
<path d="M45.3574 25.5716C45.3574 28.7145 47.9765 29.5002 49.286 29.5002C50.5955 29.5002 53.2146 28.7145 53.2146 25.5716C53.2146 22.4288 50.5955 21.6431 49.286 21.6431C47.9765 21.6431 45.3574 22.4288 45.3574 25.5716Z" stroke="white" stroke-width="3"/>
<path d="M10 60.9286C10 59.619 11.5714 57 17.8571 57C24.1429 57 25.7143 59.619 25.7143 60.9286" stroke="white" stroke-width="3"/>
<path d="M13.9287 49.1429C13.9287 52.2858 16.5478 53.0715 17.8573 53.0715C19.1668 53.0715 21.7859 52.2858 21.7859 49.1429C21.7859 46.0001 19.1668 45.2144 17.8573 45.2144C16.5478 45.2144 13.9287 46.0001 13.9287 49.1429Z" stroke="white" stroke-width="3"/>
<path d="M41.4287 60.9286C41.4287 59.619 43.0001 57 49.2859 57C55.5716 57 57.143 59.619 57.143 60.9286" stroke="white" stroke-width="3"/>
<path d="M45.3574 49.1429C45.3574 52.2858 47.9765 53.0715 49.286 53.0715C50.5955 53.0715 53.2146 52.2858 53.2146 49.1429C53.2146 46.0001 50.5955 45.2144 49.286 45.2144C47.9765 45.2144 45.3574 46.0001 45.3574 49.1429Z" stroke="white" stroke-width="3"/>
<path d="M10 84.5003C10 83.1908 11.5714 80.5718 17.8571 80.5718C24.1429 80.5718 25.7143 83.1908 25.7143 84.5003" stroke="white" stroke-width="3"/>
<path d="M13.9287 72.7147C13.9287 75.8576 16.5478 76.6433 17.8573 76.6433C19.1668 76.6433 21.7859 75.8576 21.7859 72.7147C21.7859 69.5718 19.1668 68.7861 17.8573 68.7861C16.5478 68.7861 13.9287 69.5718 13.9287 72.7147Z" stroke="white" stroke-width="3"/>
<path d="M41.4287 84.5003C41.4287 83.1908 43.0001 80.5718 49.2859 80.5718C55.5716 80.5718 57.143 83.1908 57.143 84.5003" stroke="white" stroke-width="3"/>
<path d="M45.3574 72.7147C45.3574 75.8576 47.9765 76.6433 49.286 76.6433C50.5955 76.6433 53.2146 75.8576 53.2146 72.7147C53.2146 69.5718 50.5955 68.7861 49.286 68.7861C47.9765 68.7861 45.3574 69.5718 45.3574 72.7147Z" stroke="white" stroke-width="3"/>
<path d="M10 84.5003C10 83.1908 11.5714 80.5718 17.8571 80.5718C24.1429 80.5718 25.7143 83.1908 25.7143 84.5003" stroke="white" stroke-width="3"/>
<path d="M13.9287 72.7147C13.9287 75.8576 16.5478 76.6433 17.8573 76.6433C19.1668 76.6433 21.7859 75.8576 21.7859 72.7147C21.7859 69.5718 19.1668 68.7861 17.8573 68.7861C16.5478 68.7861 13.9287 69.5718 13.9287 72.7147Z" stroke="white" stroke-width="3"/>
<path d="M41.4287 84.5003C41.4287 83.1908 43.0001 80.5718 49.2859 80.5718C55.5716 80.5718 57.143 83.1908 57.143 84.5003" stroke="white" stroke-width="3"/>
<path d="M45.3574 72.7147C45.3574 75.8576 47.9765 76.6433 49.286 76.6433C50.5955 76.6433 53.2146 75.8576 53.2146 72.7147C53.2146 69.5718 50.5955 68.7861 49.286 68.7861C47.9765 68.7861 45.3574 69.5718 45.3574 72.7147Z" stroke="white" stroke-width="3"/>
<path d="M88.5713 29.4999C88.5713 28.1903 90.1427 25.5713 96.4284 25.5713C102.714 25.5713 104.286 28.1903 104.286 29.4999" stroke="white" stroke-width="3"/>
<path d="M92.5 17.7142C92.5 20.8571 95.119 21.6428 96.4286 21.6428C97.7381 21.6428 100.357 20.8571 100.357 17.7142C100.357 14.5714 97.7381 13.7856 96.4286 13.7856C95.119 13.7856 92.5 14.5714 92.5 17.7142Z" stroke="white" stroke-width="3"/>
<path d="M72.8564 37.3569H119.999M72.8564 45.2141H119.999M72.8564 53.0712H119.999M72.8564 60.9284H119.999M72.8564 68.7855H119.999M72.8564 76.6426H119.999M96.4279 92.3569H119.999M104.285 84.4998H119.999" stroke="white" stroke-width="3"/>
</svg>
