<svg width="113" height="114" viewBox="0 0 113 114" fill="none" xmlns="http://www.w3.org/2000/svg">
<path d="M1.5 103.538H103.038V10.4615M1.5 103.538V2H103.038V10.4615M1.5 103.538C1.5 110.308 3.19231 112 9.96154 112H111.5V10.4615H103.038" stroke="white" stroke-width="3"/>
<path d="M37.0338 9.55742V19.3574H35.1718L30.2858 13.4074V19.3574H28.0458V9.55742H29.9218L34.7938 15.5074V9.55742H37.0338ZM46.9404 17.5374V19.3574H39.3524V9.55742H46.7584V11.3774H41.6064V13.5054H46.1564V15.2694H41.6064V17.5374H46.9404ZM63.4203 9.55742L60.2143 19.3574H57.7783L55.6223 12.7214L53.3963 19.3574H50.9743L47.7543 9.55742H50.1063L52.3183 16.4454L54.6283 9.55742H56.7283L58.9683 16.5014L61.2503 9.55742H63.4203ZM67.9064 19.5254C67.1317 19.5254 66.3804 19.4228 65.6524 19.2174C64.9337 19.0028 64.3551 18.7274 63.9164 18.3914L64.6864 16.6834C65.1064 16.9914 65.6057 17.2388 66.1844 17.4254C66.7631 17.6121 67.3417 17.7054 67.9204 17.7054C68.5644 17.7054 69.0404 17.6121 69.3484 17.4254C69.6564 17.2294 69.8104 16.9728 69.8104 16.6554C69.8104 16.4221 69.7171 16.2308 69.5304 16.0814C69.3531 15.9228 69.1197 15.7968 68.8304 15.7034C68.5504 15.6101 68.1677 15.5074 67.6824 15.3954C66.9357 15.2181 66.3244 15.0408 65.8484 14.8634C65.3724 14.6861 64.9617 14.4014 64.6164 14.0094C64.2804 13.6174 64.1124 13.0948 64.1124 12.4414C64.1124 11.8721 64.2664 11.3588 64.5744 10.9014C64.8824 10.4348 65.3444 10.0661 65.9604 9.79542C66.5857 9.52475 67.3464 9.38942 68.2424 9.38942C68.8677 9.38942 69.4791 9.46409 70.0764 9.61342C70.6737 9.76275 71.1964 9.97742 71.6444 10.2574L70.9444 11.9794C70.0391 11.4661 69.1337 11.2094 68.2284 11.2094C67.5937 11.2094 67.1224 11.3121 66.8144 11.5174C66.5157 11.7228 66.3664 11.9934 66.3664 12.3294C66.3664 12.6654 66.5391 12.9174 66.8844 13.0854C67.2391 13.2441 67.7757 13.4028 68.4944 13.5614C69.2411 13.7388 69.8524 13.9161 70.3284 14.0934C70.8044 14.2708 71.2104 14.5508 71.5464 14.9334C71.8917 15.3161 72.0644 15.8341 72.0644 16.4874C72.0644 17.0474 71.9057 17.5608 71.5884 18.0274C71.2804 18.4848 70.8137 18.8488 70.1884 19.1194C69.5631 19.3901 68.8024 19.5254 67.9064 19.5254Z" fill="white"/>
<path d="M50.5772 29.0771H8.26953V71.3848H50.5772V29.0771Z" stroke="white" stroke-width="3"/>
<path d="M8.26953 83.2305H50.5772M8.26953 91.692H50.5772" stroke="white" stroke-width="3"/>
<path d="M55.6543 32.4614H97.962M55.6543 40.923H97.962" stroke="white" stroke-width="3"/>
<path d="M55.6543 49.3848H97.962M55.6543 57.8463H97.962" stroke="white" stroke-width="3"/>
<path d="M55.6543 66.3076H97.962M55.6543 74.7692H97.962" stroke="white" stroke-width="3"/>
<path d="M55.6543 83.2305H97.962M55.6543 91.692H97.962" stroke="white" stroke-width="3"/>
</svg>
