<svg width="147" height="114" viewBox="0 0 147 114" fill="none" xmlns="http://www.w3.org/2000/svg">
<path d="M90.1094 2H57.1406C54.3792 2 52.1406 4.23858 52.1406 7V22.7812C52.1406 25.5427 54.3792 27.7812 57.1406 27.7812H90.1094C92.8708 27.7812 95.1094 25.5427 95.1094 22.7812V7C95.1094 4.23858 92.8708 2 90.1094 2Z" stroke="white" stroke-width="3"/>
<path d="M90.1094 44.1094H57.1406C54.3792 44.1094 52.1406 46.348 52.1406 49.1094V64.8906C52.1406 67.652 54.3792 69.8906 57.1406 69.8906H90.1094C92.8708 69.8906 95.1094 67.652 95.1094 64.8906V49.1094C95.1094 46.348 92.8708 44.1094 90.1094 44.1094Z" stroke="white" stroke-width="3"/>
<path d="M139.953 86.2188H106.984C104.223 86.2188 101.984 88.4573 101.984 91.2188V107C101.984 109.761 104.223 112 106.984 112H139.953C142.715 112 144.953 109.761 144.953 107V91.2188C144.953 88.4573 142.715 86.2188 139.953 86.2188Z" stroke="white" stroke-width="3"/>
<path d="M40.2656 86.2188H7.29688C4.53545 86.2188 2.29688 88.4573 2.29688 91.2188V107C2.29688 109.761 4.53545 112 7.29688 112H40.2656C43.0271 112 45.2656 109.761 45.2656 107V91.2188C45.2656 88.4573 43.0271 86.2188 40.2656 86.2188Z" stroke="white" stroke-width="3"/>
<path d="M40.2656 44.1094H7.29688C4.53545 44.1094 2.29688 46.348 2.29688 49.1094V64.8906C2.29688 67.652 4.53545 69.8906 7.29688 69.8906H40.2656C43.0271 69.8906 45.2656 67.652 45.2656 64.8906V49.1094C45.2656 46.348 43.0271 44.1094 40.2656 44.1094Z" stroke="white" stroke-width="3"/>
<path d="M139.953 44.1094H106.984C104.223 44.1094 101.984 46.348 101.984 49.1094V64.8906C101.984 67.652 104.223 69.8906 106.984 69.8906H139.953C142.715 69.8906 144.953 67.652 144.953 64.8906V49.1094C144.953 46.348 142.715 44.1094 139.953 44.1094Z" stroke="white" stroke-width="3"/>
<path d="M73.625 28.6406V43.25M82.2188 27.8218L122.609 44.1093" stroke="white" stroke-width="3"/>
<path d="M65.0312 27.7812L24.6406 44.1094" stroke="white" stroke-width="3"/>
<path d="M24.6406 85.3594V70.75M122.609 85.3594V70.75" stroke="white" stroke-width="3"/>
</svg>
