<svg width="68" height="68" viewBox="0 0 68 68" fill="none" xmlns="http://www.w3.org/2000/svg">
<path d="M33.6914 67.3828C52.2987 67.3828 67.3828 52.2987 67.3828 33.6914C67.3828 15.0842 52.2987 0 33.6914 0C15.0842 0 0 15.0842 0 33.6914C0 52.2987 15.0842 67.3828 33.6914 67.3828Z" fill="#E43D3D"/>
<path d="M33.691 16.8457C25.0525 16.8457 19.6484 26.2119 23.9609 33.6914L33.691 50.5371L43.4211 33.6914C47.7336 26.2119 42.3295 16.8457 33.691 16.8457ZM33.691 33.6914C30.5375 33.6914 27.977 31.1309 27.977 27.9773C27.977 24.8238 30.5375 22.2633 33.691 22.2633C36.8445 22.2633 39.4051 24.8238 39.4051 27.9773C39.4051 31.1309 36.8445 33.6914 33.691 33.6914Z" fill="white"/>
</svg>
