<svg width="202" height="202" viewBox="0 0 202 202" fill="none" xmlns="http://www.w3.org/2000/svg">
<path d="M202 0H0V202H202V0Z" fill="white"/>
<path d="M6.51562 7.44699C6.51562 7.44699 6.51563 6.51611 7.4465 6.51611H51.1977C51.1977 6.51611 52.1285 6.51611 52.1285 7.44699V51.1981C52.1285 51.1981 52.1285 52.129 51.1977 52.129H7.4465C7.4465 52.129 6.51562 52.129 6.51562 51.1981V7.44699ZM13.9626 13.0322C13.9626 13.0322 13.0318 13.0322 13.0318 13.9631V44.682C13.0318 44.682 13.0318 45.6129 13.9626 45.6129H44.6815C44.6815 45.6129 45.6124 45.6129 45.6124 44.682V13.9631C45.6124 13.9631 45.6124 13.0322 44.6815 13.0322H13.9626Z" fill="black"/>
<path d="M6.51562 59.576C6.51562 59.576 6.51563 58.6451 7.4465 58.6451H12.1009C12.1009 58.6451 13.0318 58.6451 13.0318 59.576V64.2304C13.0318 64.2304 13.0318 65.1613 12.1009 65.1613H7.4465C7.4465 65.1613 6.51562 65.1613 6.51562 64.2304V59.576Z" fill="black"/>
<path d="M19.5479 59.576C19.5479 59.576 19.5479 58.6451 20.4788 58.6451H31.6493C31.6493 58.6451 32.5801 58.6451 32.5801 59.576V64.2304C32.5801 64.2304 32.5801 65.1613 33.511 65.1613H38.1654C38.1654 65.1613 39.0963 65.1613 39.0963 66.0921V70.7465C39.0963 70.7465 39.0963 71.6774 38.1654 71.6774H26.9949C26.9949 71.6774 26.064 71.6774 26.064 72.6083V77.2627C26.064 77.2627 26.064 78.1935 25.1331 78.1935H20.4788C20.4788 78.1935 19.5479 78.1935 19.5479 79.1244V83.7788C19.5479 83.7788 19.5479 84.7097 18.617 84.7097H7.4465C7.4465 84.7097 6.51562 84.7097 6.51562 83.7788V72.6083C6.51562 72.6083 6.51563 71.6774 7.4465 71.6774H18.617C18.617 71.6774 19.5479 71.6774 19.5479 70.7465V59.576Z" fill="black"/>
<path d="M6.51562 105.189C6.51562 105.189 6.51563 104.258 7.4465 104.258H12.1009C12.1009 104.258 13.0318 104.258 13.0318 105.189V109.843C13.0318 109.843 13.0318 110.774 12.1009 110.774H7.4465C7.4465 110.774 6.51562 110.774 6.51562 109.843V105.189Z" fill="black"/>
<path d="M6.51562 124.737C6.51562 124.737 6.51563 123.806 7.4465 123.806H12.1009C12.1009 123.806 13.0318 123.806 13.0318 124.737V129.392C13.0318 129.392 13.0318 130.323 12.1009 130.323H7.4465C7.4465 130.323 6.51562 130.323 6.51562 129.392V124.737Z" fill="black"/>
<path d="M6.51562 150.802C6.51562 150.802 6.51563 149.871 7.4465 149.871H51.1977C51.1977 149.871 52.1285 149.871 52.1285 150.802V194.553C52.1285 194.553 52.1285 195.484 51.1977 195.484H7.4465C7.4465 195.484 6.51562 195.484 6.51562 194.553V150.802ZM13.9626 156.387C13.9626 156.387 13.0318 156.387 13.0318 157.318V188.037C13.0318 188.037 13.0318 188.968 13.9626 188.968H44.6815C44.6815 188.968 45.6124 188.968 45.6124 188.037V157.318C45.6124 157.318 45.6124 156.387 44.6815 156.387H13.9626Z" fill="black"/>
<path d="M13.0332 118.221C13.0332 118.221 13.0332 117.29 13.9641 117.29H18.6185C18.6185 117.29 19.5493 117.29 19.5493 118.221V122.876C19.5493 122.876 19.5493 123.806 18.6185 123.806H13.9641C13.9641 123.806 13.0332 123.806 13.0332 122.876V118.221Z" fill="black"/>
<path d="M19.5493 131.253C19.5493 131.253 19.5493 130.323 20.4802 130.323H25.1346C25.1346 130.323 26.0655 130.323 26.0655 131.253V142.424C26.0655 142.424 26.0655 143.355 25.1346 143.355H13.9641C13.9641 143.355 13.0332 143.355 13.0332 142.424V137.77C13.0332 137.77 13.0332 136.839 13.9641 136.839H18.6185C18.6185 136.839 19.5493 136.839 19.5493 135.908V131.253Z" fill="black"/>
<path d="M19.5488 20.4792C19.5488 20.4792 19.5488 19.5483 20.4797 19.5483H38.1663C38.1663 19.5483 39.0972 19.5483 39.0972 20.4792V38.1658C39.0972 38.1658 39.0972 39.0967 38.1663 39.0967H20.4797C20.4797 39.0967 19.5488 39.0967 19.5488 38.1658V20.4792Z" fill="black"/>
<path d="M19.5488 85.6406C19.5488 85.6406 19.5488 84.7097 20.4797 84.7097H25.1341C25.1341 84.7097 26.065 84.7097 26.065 85.6406V96.8111C26.065 96.8111 26.065 97.742 25.1341 97.742H20.4797C20.4797 97.742 19.5488 97.742 19.5488 96.8111V85.6406Z" fill="black"/>
<path d="M26.065 98.6728C26.065 98.6728 26.065 97.7419 26.9958 97.7419H31.6502C31.6502 97.7419 32.5811 97.7419 32.5811 98.6728V109.843C32.5811 109.843 32.5811 110.774 31.6502 110.774H20.4797C20.4797 110.774 19.5488 110.774 19.5488 109.843V105.189C19.5488 105.189 19.5488 104.258 20.4797 104.258H25.1341C25.1341 104.258 26.065 104.258 26.065 103.327V98.6728Z" fill="black"/>
<path d="M19.5488 163.834C19.5488 163.834 19.5488 162.903 20.4797 162.903H38.1663C38.1663 162.903 39.0972 162.903 39.0972 163.834V181.521C39.0972 181.521 39.0972 182.452 38.1663 182.452H20.4797C20.4797 182.452 19.5488 182.452 19.5488 181.521V163.834Z" fill="black"/>
<path d="M26.0645 118.221C26.0645 118.221 26.0645 117.29 26.9953 117.29H31.6497C31.6497 117.29 32.5806 117.29 32.5806 118.221V129.392C32.5806 129.392 32.5806 130.323 31.6497 130.323H26.9953C26.9953 130.323 26.0645 130.323 26.0645 129.392V118.221Z" fill="black"/>
<path d="M110.774 26.9953C110.774 26.9953 110.774 26.0645 111.705 26.0645H122.875C122.875 26.0645 123.806 26.0645 123.806 26.9953V38.1658C123.806 38.1658 123.806 39.0967 124.737 39.0967H129.391C129.391 39.0967 130.322 39.0967 130.322 38.1658V33.5115C130.322 33.5115 130.322 32.5806 131.253 32.5806H135.907C135.907 32.5806 136.838 32.5806 136.838 33.5115V38.1658C136.838 38.1658 136.838 39.0967 137.769 39.0967H142.423C142.423 39.0967 143.354 39.0967 143.354 40.0276V64.2304C143.354 64.2304 143.354 65.1612 144.285 65.1612H148.94C148.94 65.1612 149.87 65.1612 149.87 64.2304V59.576C149.87 59.576 149.87 58.6451 150.801 58.6451H155.456C155.456 58.6451 156.387 58.6451 156.387 59.576V70.7465C156.387 70.7465 156.387 71.6774 157.317 71.6774H161.972C161.972 71.6774 162.903 71.6774 162.903 70.7465V66.0921C162.903 66.0921 162.903 65.1612 163.834 65.1612H168.488C168.488 65.1612 169.419 65.1612 169.419 66.0921V77.2626C169.419 77.2626 169.419 78.1935 168.488 78.1935H144.285C144.285 78.1935 143.354 78.1935 143.354 77.2626V72.6082C143.354 72.6082 143.354 71.6774 142.423 71.6774H131.253C131.253 71.6774 130.322 71.6774 130.322 70.7465V66.0921C130.322 66.0921 130.322 65.1612 129.391 65.1612H118.221C118.221 65.1612 117.29 65.1612 117.29 66.0921V70.7465C117.29 70.7465 117.29 71.6774 116.359 71.6774H111.705C111.705 71.6774 110.774 71.6774 110.774 72.6082V83.7787C110.774 83.7787 110.774 84.7096 109.843 84.7096H92.1561C92.1561 84.7096 91.2252 84.7096 91.2252 85.6405V90.2949C91.2252 90.2949 91.2252 91.2257 92.1561 91.2257H96.8105C96.8105 91.2257 97.7414 91.2257 97.7414 92.1566V96.811C97.7414 96.811 97.7414 97.7419 96.8105 97.7419H53.0593C53.0593 97.7419 52.1285 97.7419 52.1285 96.811V92.1566C52.1285 92.1566 52.1285 91.2257 51.1976 91.2257H33.511C33.511 91.2257 32.5801 91.2257 32.5801 90.2949V79.1244C32.5801 79.1244 32.5801 78.1935 33.511 78.1935H38.1653C38.1653 78.1935 39.0962 78.1935 39.0962 79.1244V83.7787C39.0962 83.7787 39.0962 84.7096 40.0271 84.7096H51.1976C51.1976 84.7096 52.1285 84.7096 52.1285 83.7787V79.1244C52.1285 79.1244 52.1285 78.1935 51.1976 78.1935H46.5432C46.5432 78.1935 45.6123 78.1935 45.6123 77.2626V72.6082C45.6123 72.6082 45.6123 71.6774 46.5432 71.6774H57.7137C57.7137 71.6774 58.6446 71.6774 58.6446 70.7465V66.0921C58.6446 66.0921 58.6446 65.1612 59.5755 65.1612H70.746C70.746 65.1612 71.6769 65.1612 71.6769 66.0921V70.7465C71.6769 70.7465 71.6769 71.6774 70.746 71.6774H66.0916C66.0916 71.6774 65.1607 71.6774 65.1607 72.6082V77.2626C65.1607 77.2626 65.1607 78.1935 64.2298 78.1935H59.5755C59.5755 78.1935 58.6446 78.1935 58.6446 79.1244V90.2949C58.6446 90.2949 58.6446 91.2257 59.5755 91.2257H70.746C70.746 91.2257 71.6769 91.2257 71.6769 90.2949V85.6405C71.6769 85.6405 71.6769 84.7096 72.6077 84.7096H77.2621C77.2621 84.7096 78.193 84.7096 78.193 85.6405V90.2949C78.193 90.2949 78.193 91.2257 79.1239 91.2257H83.7782C83.7782 91.2257 84.7091 91.2257 84.7091 90.2949V79.1244C84.7091 79.1244 84.7091 78.1935 83.7782 78.1935H72.6077C72.6077 78.1935 71.6769 78.1935 71.6769 77.2626V72.6082C71.6769 72.6082 71.6769 71.6774 72.6077 71.6774H77.2621C77.2621 71.6774 78.193 71.6774 78.193 70.7465V66.0921C78.193 66.0921 78.193 65.1612 79.1239 65.1612H90.2944C90.2944 65.1612 91.2252 65.1612 91.2252 66.0921V77.2626C91.2252 77.2626 91.2252 78.1935 92.1561 78.1935H96.8105C96.8105 78.1935 97.7414 78.1935 97.7414 77.2626V72.6082C97.7414 72.6082 97.7414 71.6774 98.6722 71.6774H103.327C103.327 71.6774 104.257 71.6774 104.257 70.7465V66.0921C104.257 66.0921 104.257 65.1612 105.188 65.1612H109.843C109.843 65.1612 110.774 65.1612 110.774 64.2304V59.576C110.774 59.576 110.774 58.6451 111.705 58.6451H116.359C116.359 58.6451 117.29 58.6451 117.29 57.7142V53.0598C117.29 53.0598 117.29 52.129 118.221 52.129H122.875C122.875 52.129 123.806 52.129 123.806 51.1981V46.5437C123.806 46.5437 123.806 45.6128 122.875 45.6128H118.221C118.221 45.6128 117.29 45.6128 117.29 44.682V33.5115C117.29 33.5115 117.29 32.5806 116.359 32.5806H111.705C111.705 32.5806 110.774 32.5806 110.774 31.6497V26.9953ZM131.253 45.6128C131.253 45.6128 130.322 45.6128 130.322 46.5437V51.1981C130.322 51.1981 130.322 52.129 131.253 52.129H135.907C135.907 52.129 136.838 52.129 136.838 51.1981V46.5437C136.838 46.5437 136.838 45.6128 135.907 45.6128H131.253Z" fill="black"/>
<path d="M32.5801 111.705C32.5801 111.705 32.5801 110.774 33.511 110.774H38.1653C38.1653 110.774 39.0962 110.774 39.0962 111.705V116.359C39.0962 116.359 39.0962 117.29 38.1653 117.29H33.511C33.511 117.29 32.5801 117.29 32.5801 116.359V111.705Z" fill="black"/>
<path d="M32.5801 137.77C32.5801 137.77 32.5801 136.839 33.511 136.839H51.1976C51.1976 136.839 52.1285 136.839 52.1285 137.77V142.424C52.1285 142.424 52.1285 143.355 51.1976 143.355H33.511C33.511 143.355 32.5801 143.355 32.5801 142.424V137.77Z" fill="black"/>
<path d="M39.0977 59.576C39.0977 59.576 39.0977 58.6451 40.0285 58.6451H57.7152C57.7152 58.6451 58.646 58.6451 58.646 59.576V64.2304C58.646 64.2304 58.646 65.1613 57.7152 65.1613H40.0285C40.0285 65.1613 39.0977 65.1613 39.0977 64.2304V59.576Z" fill="black"/>
<path d="M39.0977 98.6728C39.0977 98.6728 39.0977 97.7419 40.0285 97.7419H51.199C51.199 97.7419 52.1299 97.7419 52.1299 98.6728V103.327C52.1299 103.327 52.1299 104.258 51.199 104.258H46.5447C46.5447 104.258 45.6138 104.258 45.6138 105.189V109.843C45.6138 109.843 45.6138 110.774 44.6829 110.774H40.0285C40.0285 110.774 39.0977 110.774 39.0977 109.843V98.6728Z" fill="black"/>
<path d="M45.6133 111.705C45.6133 111.705 45.6133 110.774 46.5442 110.774H51.1985C51.1985 110.774 52.1294 110.774 52.1294 111.705V116.359C52.1294 116.359 52.1294 117.29 51.1985 117.29H46.5442C46.5442 117.29 45.6133 117.29 45.6133 116.359V111.705Z" fill="black"/>
<path d="M52.1294 118.221C52.1294 118.221 52.1294 117.29 53.0603 117.29H64.2308C64.2308 117.29 65.1617 117.29 65.1617 118.221V122.876C65.1617 122.876 65.1617 123.806 66.0925 123.806H70.7469C70.7469 123.806 71.6778 123.806 71.6778 124.737V135.908C71.6778 135.908 71.6778 136.839 72.6087 136.839H77.263C77.263 136.839 78.1939 136.839 78.1939 137.77V142.424C78.1939 142.424 78.1939 143.355 77.263 143.355H66.0925C66.0925 143.355 65.1617 143.355 65.1617 142.424V137.77C65.1617 137.77 65.1617 136.839 64.2308 136.839H53.0603C53.0603 136.839 52.1294 136.839 52.1294 135.908V131.253C52.1294 131.253 52.1294 130.323 51.1985 130.323H46.5442C46.5442 130.323 45.6133 130.323 45.6133 129.392V124.737C45.6133 124.737 45.6133 123.806 46.5442 123.806H51.1985C51.1985 123.806 52.1294 123.806 52.1294 122.876V118.221Z" fill="black"/>
<path d="M52.1289 105.189C52.1289 105.189 52.1289 104.258 53.0598 104.258H57.7142C57.7142 104.258 58.645 104.258 58.645 105.189V109.843C58.645 109.843 58.645 110.774 57.7142 110.774H53.0598C53.0598 110.774 52.1289 110.774 52.1289 109.843V105.189Z" fill="black"/>
<path d="M58.6445 7.44699C58.6445 7.44699 58.6445 6.51611 59.5754 6.51611H64.2298C64.2298 6.51611 65.1607 6.51611 65.1607 7.44699V18.6175C65.1607 18.6175 65.1607 19.5484 64.2298 19.5484H59.5754C59.5754 19.5484 58.6445 19.5484 58.6445 18.6175V7.44699Z" fill="black"/>
<path d="M65.1607 20.4792C65.1607 20.4792 65.1607 19.5483 66.0915 19.5483H70.7459C70.7459 19.5483 71.6768 19.5483 71.6768 20.4792V25.1336C71.6768 25.1336 71.6768 26.0645 72.6077 26.0645H77.262C77.262 26.0645 78.1929 26.0645 78.1929 25.1336V20.4792C78.1929 20.4792 78.1929 19.5483 79.1238 19.5483H83.7782C83.7782 19.5483 84.709 19.5483 84.709 20.4792V31.6497C84.709 31.6497 84.709 32.5806 83.7782 32.5806H79.1238C79.1238 32.5806 78.1929 32.5806 78.1929 33.5115V38.1659C78.1929 38.1659 78.1929 39.0967 77.262 39.0967H72.6077C72.6077 39.0967 71.6768 39.0967 71.6768 40.0276V44.682C71.6768 44.682 71.6768 45.6129 70.7459 45.6129H66.0915C66.0915 45.6129 65.1607 45.6129 65.1607 44.682V33.5115C65.1607 33.5115 65.1607 32.5806 64.2298 32.5806H59.5754C59.5754 32.5806 58.6445 32.5806 58.6445 31.6497V26.9953C58.6445 26.9953 58.6445 26.0645 59.5754 26.0645H64.2298C64.2298 26.0645 65.1607 26.0645 65.1607 25.1336V20.4792Z" fill="black"/>
<path d="M84.709 33.5116C84.709 33.5116 84.709 32.5807 85.6399 32.5807H96.8104C96.8104 32.5807 97.7413 32.5807 97.7413 33.5116V38.1659C97.7413 38.1659 97.7413 39.0968 96.8104 39.0968H92.1561C92.1561 39.0968 91.2252 39.0968 91.2252 40.0277V51.1982C91.2252 51.1982 91.2252 52.1291 92.1561 52.1291H96.8104C96.8104 52.1291 97.7413 52.1291 97.7413 51.1982V40.0277C97.7413 40.0277 97.7413 39.0968 98.6722 39.0968H103.327C103.327 39.0968 104.257 39.0968 104.257 40.0277V64.2305C104.257 64.2305 104.257 65.1613 103.327 65.1613H92.1561C92.1561 65.1613 91.2252 65.1613 91.2252 64.2305V59.5761C91.2252 59.5761 91.2252 58.6452 90.2943 58.6452H59.5754C59.5754 58.6452 58.6445 58.6452 58.6445 57.7143V46.5438C58.6445 46.5438 58.6445 45.6129 59.5754 45.6129H64.2298C64.2298 45.6129 65.1607 45.6129 65.1607 46.5438V51.1982C65.1607 51.1982 65.1607 52.1291 66.0915 52.1291H70.7459C70.7459 52.1291 71.6768 52.1291 71.6768 51.1982V46.5438C71.6768 46.5438 71.6768 45.6129 72.6077 45.6129H77.262C77.262 45.6129 78.1929 45.6129 78.1929 46.5438V51.1982C78.1929 51.1982 78.1929 52.1291 79.1238 52.1291H83.7782C83.7782 52.1291 84.709 52.1291 84.709 51.1982V33.5116Z" fill="black"/>
<path d="M58.6445 144.286C58.6445 144.286 58.6445 143.355 59.5754 143.355H64.2298C64.2298 143.355 65.1607 143.355 65.1607 144.286V148.94C65.1607 148.94 65.1607 149.871 66.0915 149.871H70.7459C70.7459 149.871 71.6768 149.871 71.6768 150.802V155.456C71.6768 155.456 71.6768 156.387 70.7459 156.387H66.0915C66.0915 156.387 65.1607 156.387 65.1607 157.318V161.972C65.1607 161.972 65.1607 162.903 64.2298 162.903H59.5754C59.5754 162.903 58.6445 162.903 58.6445 161.972V144.286Z" fill="black"/>
<path d="M58.6445 170.35C58.6445 170.35 58.6445 169.419 59.5754 169.419H64.2298C64.2298 169.419 65.1607 169.419 65.1607 170.35V175.005C65.1607 175.005 65.1607 175.936 66.0915 175.936H70.7459C70.7459 175.936 71.6768 175.935 71.6768 176.866V194.553C71.6768 194.553 71.6768 195.484 70.7459 195.484H59.5754C59.5754 195.484 58.6445 195.484 58.6445 194.553V189.899C58.6445 189.899 58.6445 188.968 59.5754 188.968H64.2298C64.2298 188.968 65.1607 188.968 65.1607 188.037V183.383C65.1607 183.383 65.1607 182.452 64.2298 182.452H59.5754C59.5754 182.452 58.6445 182.452 58.6445 181.521V170.35Z" fill="black"/>
<path d="M65.1621 79.1245C65.1621 79.1245 65.1621 78.1936 66.093 78.1936H70.7474C70.7474 78.1936 71.6782 78.1936 71.6782 79.1245V83.7789C71.6782 83.7789 71.6782 84.7097 70.7474 84.7097H66.093C66.093 84.7097 65.1621 84.7097 65.1621 83.7789V79.1245Z" fill="black"/>
<path d="M65.1621 105.189C65.1621 105.189 65.1621 104.258 66.093 104.258H83.7796C83.7796 104.258 84.7105 104.258 84.7105 105.189V109.843C84.7105 109.843 84.7105 110.774 83.7796 110.774H66.093C66.093 110.774 65.1621 110.774 65.1621 109.843V105.189Z" fill="black"/>
<path d="M71.6777 118.221C71.6777 118.221 71.6777 117.29 72.6086 117.29H77.263C77.263 117.29 78.1939 117.29 78.1939 118.221V122.876C78.1939 122.876 78.1939 123.806 77.263 123.806H72.6086C72.6086 123.806 71.6777 123.806 71.6777 122.876V118.221Z" fill="black"/>
<path d="M78.1934 124.737C78.1934 124.737 78.1934 123.806 79.1242 123.806H90.2947C90.2947 123.806 91.2256 123.806 91.2256 124.737V135.908C91.2256 135.908 91.2256 136.839 90.2947 136.839H79.1242C79.1242 136.839 78.1934 136.839 78.1934 135.908V124.737Z" fill="black"/>
<path d="M130.322 92.1567C130.322 92.1567 130.322 91.2258 131.253 91.2258H135.908C135.908 91.2258 136.839 91.2258 136.839 92.1567V103.327C136.839 103.327 136.839 104.258 137.769 104.258H148.94C148.94 104.258 149.871 104.258 149.871 103.327V98.6728C149.871 98.6728 149.871 97.742 148.94 97.742H144.286C144.286 97.742 143.355 97.742 143.355 96.8111V92.1567C143.355 92.1567 143.355 91.2258 144.286 91.2258H155.456C155.456 91.2258 156.387 91.2258 156.387 92.1567V96.8111C156.387 96.8111 156.387 97.742 157.318 97.742H181.521C181.521 97.742 182.451 97.742 182.451 96.8111V92.1567C182.451 92.1567 182.451 91.2258 183.382 91.2258H194.553C194.553 91.2258 195.484 91.2258 195.484 92.1567V103.327C195.484 103.327 195.484 104.258 194.553 104.258H189.898C189.898 104.258 188.968 104.258 188.968 105.189V122.876C188.968 122.876 188.968 123.806 188.037 123.806H183.382C183.382 123.806 182.451 123.806 182.451 124.737V142.424C182.451 142.424 182.451 143.355 183.382 143.355H194.553C194.553 143.355 195.484 143.355 195.484 144.286V148.94C195.484 148.94 195.484 149.871 194.553 149.871H189.898C189.898 149.871 188.968 149.871 188.968 150.802V155.456C188.968 155.456 188.968 156.387 189.898 156.387H194.553C194.553 156.387 195.484 156.387 195.484 157.318V168.489C195.484 168.489 195.484 169.419 194.553 169.419H189.898C189.898 169.419 188.968 169.419 188.968 168.489V163.834C188.968 163.834 188.968 162.903 188.037 162.903H183.382C183.382 162.903 182.451 162.903 182.451 161.972V150.802C182.451 150.802 182.451 149.871 181.521 149.871H176.866C176.866 149.871 175.935 149.871 175.935 150.802V155.456C175.935 155.456 175.935 156.387 175.004 156.387H170.35C170.35 156.387 169.419 156.387 169.419 157.318V175.005C169.419 175.005 169.419 175.936 168.488 175.936H163.834C163.834 175.936 162.903 175.936 162.903 176.866V181.521C162.903 181.521 162.903 182.452 161.972 182.452H157.318C157.318 182.452 156.387 182.452 156.387 181.521V170.35C156.387 170.35 156.387 169.419 155.456 169.419H144.286C144.286 169.419 143.355 169.419 143.355 170.35V188.037C143.355 188.037 143.355 188.968 144.286 188.968H148.94C148.94 188.968 149.871 188.968 149.871 188.037V183.383C149.871 183.383 149.871 182.452 150.802 182.452H155.456C155.456 182.452 156.387 182.452 156.387 183.383V194.553C156.387 194.553 156.387 195.484 155.456 195.484H131.253C131.253 195.484 130.322 195.484 130.322 194.553V189.899C130.322 189.899 130.322 188.968 131.253 188.968H135.908C135.908 188.968 136.839 188.968 136.839 188.037V183.383C136.839 183.383 136.839 182.452 135.908 182.452H118.221C118.221 182.452 117.29 182.452 117.29 183.383V188.037C117.29 188.037 117.29 188.968 116.359 188.968H111.705C111.705 188.968 110.774 188.968 110.774 188.037V183.383C110.774 183.383 110.774 182.452 109.843 182.452H105.189C105.189 182.452 104.258 182.452 104.258 181.521V176.866C104.258 176.866 104.258 175.936 105.189 175.936H109.843C109.843 175.936 110.774 175.936 110.774 175.005V170.35C110.774 170.35 110.774 169.419 111.705 169.419H116.359C116.359 169.419 117.29 169.419 117.29 170.35V175.005C117.29 175.005 117.29 175.936 118.221 175.936H129.392C129.392 175.936 130.322 175.936 130.322 175.005V170.35C130.322 170.35 130.322 169.419 131.253 169.419H135.908C135.908 169.419 136.839 169.419 136.839 168.489V157.318C136.839 157.318 136.839 156.387 135.908 156.387H131.253C131.253 156.387 130.322 156.387 130.322 157.318V168.489C130.322 168.489 130.322 169.419 129.392 169.419H118.221C118.221 169.419 117.29 169.419 117.29 168.489V163.834C117.29 163.834 117.29 162.903 118.221 162.903H122.875C122.875 162.903 123.806 162.903 123.806 161.972V157.318C123.806 157.318 123.806 156.387 122.875 156.387H118.221C118.221 156.387 117.29 156.387 117.29 157.318V161.972C117.29 161.972 117.29 162.903 116.359 162.903H111.705C111.705 162.903 110.774 162.903 110.774 161.972V150.802C110.774 150.802 110.774 149.871 111.705 149.871H122.875C122.875 149.871 123.806 149.871 123.806 148.94V144.286C123.806 144.286 123.806 143.355 122.875 143.355H118.221C118.221 143.355 117.29 143.355 117.29 142.424V137.77C117.29 137.77 117.29 136.839 116.359 136.839H111.705C111.705 136.839 110.774 136.839 110.774 137.77V148.94C110.774 148.94 110.774 149.871 109.843 149.871H98.6726C98.6726 149.871 97.7417 149.871 97.7417 150.802V155.456C97.7417 155.456 97.7417 156.387 96.8109 156.387H92.1565C92.1565 156.387 91.2256 156.387 91.2256 157.318V161.972C91.2256 161.972 91.2256 162.903 90.2947 162.903H85.6404C85.6404 162.903 84.7095 162.903 84.7095 163.834V175.005C84.7095 175.005 84.7095 175.936 83.7786 175.936H79.1242C79.1242 175.936 78.1934 175.936 78.1934 175.005V144.286C78.1934 144.286 78.1934 143.355 79.1242 143.355H90.2947C90.2947 143.355 91.2256 143.355 91.2256 142.424V137.77C91.2256 137.77 91.2256 136.839 92.1565 136.839H96.8109C96.8109 136.839 97.7417 136.839 97.7417 137.77V142.424C97.7417 142.424 97.7418 143.355 98.6726 143.355H103.327C103.327 143.355 104.258 143.355 104.258 142.424V131.253C104.258 131.253 104.258 130.323 105.189 130.323H122.875C122.875 130.323 123.806 130.323 123.806 131.253V135.908C123.806 135.908 123.806 136.839 124.737 136.839H129.392C129.392 136.839 130.322 136.839 130.322 137.77V148.94C130.322 148.94 130.322 149.871 131.253 149.871H135.908C135.908 149.871 136.839 149.871 136.839 148.94V137.77C136.839 137.77 136.839 136.839 137.769 136.839H142.424C142.424 136.839 143.355 136.839 143.355 135.908V131.253C143.355 131.253 143.355 130.323 144.286 130.323H148.94C148.94 130.323 149.871 130.323 149.871 131.253V135.908C149.871 135.908 149.871 136.839 150.802 136.839H161.972C161.972 136.839 162.903 136.839 162.903 135.908V131.253C162.903 131.253 162.903 130.323 161.972 130.323H157.318C157.318 130.323 156.387 130.323 156.387 129.392V118.221C156.387 118.221 156.387 117.29 157.318 117.29H161.972C161.972 117.29 162.903 117.29 162.903 118.221V122.876C162.903 122.876 162.903 123.806 163.834 123.806H175.004C175.004 123.806 175.935 123.806 175.935 122.876V118.221C175.935 118.221 175.935 117.29 176.866 117.29H181.521C181.521 117.29 182.451 117.29 182.451 116.359V105.189C182.451 105.189 182.451 104.258 181.521 104.258H170.35C170.35 104.258 169.419 104.258 169.419 105.189V116.359C169.419 116.359 169.419 117.29 168.488 117.29H163.834C163.834 117.29 162.903 117.29 162.903 116.359V105.189C162.903 105.189 162.903 104.258 161.972 104.258H157.318C157.318 104.258 156.387 104.258 156.387 105.189V109.843C156.387 109.843 156.387 110.774 155.456 110.774H150.802C150.802 110.774 149.871 110.774 149.871 111.705V122.876C149.871 122.876 149.871 123.806 148.94 123.806H137.769C137.769 123.806 136.839 123.806 136.839 122.876V118.221C136.839 118.221 136.839 117.29 137.769 117.29H142.424C142.424 117.29 143.355 117.29 143.355 116.359V111.705C143.355 111.705 143.355 110.774 142.424 110.774H131.253C131.253 110.774 130.322 110.774 130.322 109.843V92.1567ZM170.35 130.323C170.35 130.323 169.419 130.323 169.419 131.253V135.908C169.419 135.908 169.419 136.839 170.35 136.839H175.004C175.004 136.839 175.935 136.839 175.935 135.908V131.253C175.935 131.253 175.935 130.323 175.004 130.323H170.35ZM144.286 143.355C144.286 143.355 143.355 143.355 143.355 144.286V161.972C143.355 161.972 143.355 162.903 144.286 162.903H161.972C161.972 162.903 162.903 162.903 162.903 161.972V144.286C162.903 144.286 162.903 143.355 161.972 143.355H144.286Z" fill="black"/>
<path d="M78.1934 183.382C78.1934 183.382 78.1934 182.452 79.1242 182.452H83.7786C83.7786 182.452 84.7095 182.452 84.7095 183.382V188.037C84.7095 188.037 84.7095 188.968 83.7786 188.968H79.1242C79.1242 188.968 78.1934 188.968 78.1934 188.037V183.382Z" fill="black"/>
<path d="M84.709 111.705C84.709 111.705 84.709 110.774 85.6399 110.774H90.2942C90.2942 110.774 91.2251 110.774 91.2251 111.705V116.359C91.2251 116.359 91.2251 117.29 90.2942 117.29H85.6399C85.6399 117.29 84.709 117.29 84.709 116.359V111.705Z" fill="black"/>
<path d="M91.2251 183.382C91.2251 183.382 91.2251 182.452 92.156 182.452H103.326C103.326 182.452 104.257 182.452 104.257 183.382V188.037C104.257 188.037 104.257 188.968 103.326 188.968H98.6721C98.6721 188.968 97.7412 188.968 97.7412 189.899V194.553C97.7412 194.553 97.7412 195.484 96.8104 195.484H85.6399C85.6399 195.484 84.709 195.484 84.709 194.553V189.899C84.709 189.899 84.709 188.968 85.6399 188.968H90.2942C90.2942 188.968 91.2251 188.968 91.2251 188.037V183.382Z" fill="black"/>
<path d="M104.259 7.44699C104.259 7.44699 104.259 6.51611 105.19 6.51611H135.909C135.909 6.51611 136.839 6.51611 136.839 7.44699V12.1014C136.839 12.1014 136.839 13.0322 135.909 13.0322H131.254C131.254 13.0322 130.323 13.0322 130.323 13.9631V18.6175C130.323 18.6175 130.323 19.5484 131.254 19.5484H135.909C135.909 19.5484 136.839 19.5484 136.839 18.6175V13.9631C136.839 13.9631 136.839 13.0322 137.77 13.0322H142.425C142.425 13.0322 143.356 13.0322 143.356 13.9631V31.6498C143.356 31.6498 143.356 32.5806 142.425 32.5806H137.77C137.77 32.5806 136.839 32.5806 136.839 31.6498V26.9954C136.839 26.9954 136.839 26.0645 135.909 26.0645H124.738C124.738 26.0645 123.807 26.0645 123.807 25.1336V13.9631C123.807 13.9631 123.807 13.0322 122.876 13.0322H111.706C111.706 13.0322 110.775 13.0322 110.775 13.9631V25.1336C110.775 25.1336 110.775 26.0645 109.844 26.0645H92.1574C92.1574 26.0645 91.2266 26.0645 91.2266 25.1336V20.4792C91.2266 20.4792 91.2266 19.5484 92.1574 19.5484H96.8118C96.8118 19.5484 97.7427 19.5484 97.7427 18.6175V13.9631C97.7427 13.9631 97.7427 13.0322 98.6736 13.0322H103.328C103.328 13.0322 104.259 13.0322 104.259 12.1014V7.44699Z" fill="black"/>
<path d="M91.2266 105.189C91.2266 105.189 91.2266 104.258 92.1574 104.258H96.8118C96.8118 104.258 97.7427 104.258 97.7427 105.189V109.843C97.7427 109.843 97.7427 110.774 96.8118 110.774H92.1574C92.1574 110.774 91.2266 110.774 91.2266 109.843V105.189Z" fill="black"/>
<path d="M91.2266 118.221C91.2266 118.221 91.2266 117.29 92.1574 117.29H96.8118C96.8118 117.29 97.7427 117.29 97.7427 118.221V122.876C97.7427 122.876 97.7427 123.806 96.8118 123.806H92.1574C92.1574 123.806 91.2266 123.806 91.2266 122.876V118.221Z" fill="black"/>
<path d="M97.7422 98.6728C97.7422 98.6728 97.7422 97.7419 98.6731 97.7419H103.327C103.327 97.7419 104.258 97.7419 104.258 98.6728V103.327C104.258 103.327 104.258 104.258 103.327 104.258H98.6731C98.6731 104.258 97.7422 104.258 97.7422 103.327V98.6728Z" fill="black"/>
<path d="M97.7422 163.834C97.7422 163.834 97.7422 162.903 98.6731 162.903H109.844C109.844 162.903 110.774 162.903 110.774 163.834V168.488C110.774 168.488 110.774 169.419 109.844 169.419H105.189C105.189 169.419 104.258 169.419 104.258 170.35V175.005C104.258 175.005 104.258 175.935 103.327 175.935H98.6731C98.6731 175.935 97.7422 175.935 97.7422 175.005V163.834Z" fill="black"/>
<path d="M104.258 105.189C104.258 105.189 104.258 104.258 105.189 104.258H109.843C109.843 104.258 110.774 104.258 110.774 105.189V109.843C110.774 109.843 110.774 110.774 109.843 110.774H105.189C105.189 110.774 104.258 110.774 104.258 109.843V105.189Z" fill="black"/>
<path d="M104.258 189.899C104.258 189.899 104.258 188.968 105.189 188.968H109.843C109.843 188.968 110.774 188.968 110.774 189.899V194.553C110.774 194.553 110.774 195.484 109.843 195.484H105.189C105.189 195.484 104.258 195.484 104.258 194.553V189.899Z" fill="black"/>
<path d="M110.773 46.5438C110.773 46.5438 110.773 45.6129 111.704 45.6129H116.359C116.359 45.6129 117.29 45.6129 117.29 46.5438V51.1982C117.29 51.1982 117.29 52.129 116.359 52.129H111.704C111.704 52.129 110.773 52.129 110.773 51.1982V46.5438Z" fill="black"/>
<path d="M110.773 85.6406C110.773 85.6406 110.773 84.7097 111.704 84.7097H122.875C122.875 84.7097 123.806 84.7097 123.806 85.6406V90.295C123.806 90.295 123.806 91.2258 122.875 91.2258H111.704C111.704 91.2258 110.773 91.2258 110.773 90.295V85.6406Z" fill="black"/>
<path d="M117.291 72.6082C117.291 72.6082 117.291 71.6774 118.222 71.6774H129.392C129.392 71.6774 130.323 71.6774 130.323 72.6082V77.2626C130.323 77.2626 130.323 78.1935 131.254 78.1935H142.425C142.425 78.1935 143.356 78.1935 143.356 79.1244V83.7788C143.356 83.7788 143.356 84.7096 142.425 84.7096H124.738C124.738 84.7096 123.807 84.7096 123.807 83.7788V79.1244C123.807 79.1244 123.807 78.1935 122.876 78.1935H118.222C118.222 78.1935 117.291 78.1935 117.291 77.2626V72.6082Z" fill="black"/>
<path d="M117.291 189.899C117.291 189.899 117.291 188.968 118.222 188.968H122.876C122.876 188.968 123.807 188.968 123.807 189.899V194.553C123.807 194.553 123.807 195.484 122.876 195.484H118.222C118.222 195.484 117.291 195.484 117.291 194.553V189.899Z" fill="black"/>
<path d="M123.807 111.705C123.807 111.705 123.807 110.774 124.738 110.774H129.392C129.392 110.774 130.323 110.774 130.323 111.705V116.359C130.323 116.359 130.323 117.29 129.392 117.29H124.738C124.738 117.29 123.807 117.29 123.807 116.359V111.705Z" fill="black"/>
<path d="M130.322 131.253C130.322 131.253 130.322 130.323 131.253 130.323H135.908C135.908 130.323 136.838 130.323 136.838 131.253V135.908C136.838 135.908 136.838 136.839 135.908 136.839H131.253C131.253 136.839 130.322 136.839 130.322 135.908V131.253Z" fill="black"/>
<path d="M149.871 7.44699C149.871 7.44699 149.871 6.51611 150.802 6.51611H194.553C194.553 6.51611 195.484 6.51611 195.484 7.44699V51.1981C195.484 51.1981 195.484 52.129 194.553 52.129H150.802C150.802 52.129 149.871 52.129 149.871 51.1981V7.44699ZM157.318 13.0322C157.318 13.0322 156.387 13.0322 156.387 13.9631V44.682C156.387 44.682 156.387 45.6129 157.318 45.6129H188.037C188.037 45.6129 188.968 45.6129 188.968 44.682V13.9631C188.968 13.9631 188.968 13.0322 188.037 13.0322H157.318Z" fill="black"/>
<path d="M149.871 150.802C149.871 150.802 149.871 149.871 150.802 149.871H155.456C155.456 149.871 156.387 149.871 156.387 150.802V155.456C156.387 155.456 156.387 156.387 155.456 156.387H150.802C150.802 156.387 149.871 156.387 149.871 155.456V150.802Z" fill="black"/>
<path d="M156.387 85.6406C156.387 85.6406 156.387 84.7097 157.318 84.7097H161.972C161.972 84.7097 162.903 84.7097 162.903 85.6406V90.295C162.903 90.295 162.903 91.2258 161.972 91.2258H157.318C157.318 91.2258 156.387 91.2258 156.387 90.295V85.6406Z" fill="black"/>
<path d="M162.902 20.4792C162.902 20.4792 162.902 19.5483 163.833 19.5483H181.52C181.52 19.5483 182.451 19.5483 182.451 20.4792V38.1658C182.451 38.1658 182.451 39.0967 181.52 39.0967H163.833C163.833 39.0967 162.902 39.0967 162.902 38.1658V20.4792Z" fill="black"/>
<path d="M162.902 183.382C162.902 183.382 162.902 182.452 163.833 182.452H175.004C175.004 182.452 175.935 182.452 175.935 183.382V188.037C175.935 188.037 175.935 188.968 175.004 188.968H163.833C163.833 188.968 162.902 188.968 162.902 188.037V183.382Z" fill="black"/>
<path d="M169.42 59.576C169.42 59.576 169.42 58.6451 170.351 58.6451H175.005C175.005 58.6451 175.936 58.6451 175.936 59.576V64.2304C175.936 64.2304 175.936 65.1613 175.005 65.1613H170.351C170.351 65.1613 169.42 65.1613 169.42 64.2304V59.576Z" fill="black"/>
<path d="M169.42 79.1245C169.42 79.1245 169.42 78.1936 170.351 78.1936H175.005C175.005 78.1936 175.936 78.1936 175.936 79.1245V83.7789C175.936 83.7789 175.936 84.7097 176.867 84.7097H181.521C181.521 84.7097 182.452 84.7097 182.452 85.6406V90.295C182.452 90.295 182.452 91.2259 181.521 91.2259H170.351C170.351 91.2259 169.42 91.2259 169.42 90.295V79.1245Z" fill="black"/>
<path d="M175.936 72.6082C175.936 72.6082 175.936 71.6774 176.866 71.6774H188.037C188.037 71.6774 188.968 71.6774 188.968 72.6082V77.2626C188.968 77.2626 188.968 78.1935 188.037 78.1935H176.866C176.866 78.1935 175.936 78.1935 175.936 77.2626V72.6082Z" fill="black"/>
<path d="M175.936 163.834C175.936 163.834 175.936 162.903 176.866 162.903H181.521C181.521 162.903 182.452 162.903 182.452 163.834V168.488C182.452 168.488 182.452 169.419 183.383 169.419H188.037C188.037 169.419 188.968 169.419 188.968 170.35V175.005C188.968 175.005 188.968 175.935 188.037 175.935H176.866C176.866 175.935 175.936 175.935 175.936 175.005V163.834Z" fill="black"/>
<path d="M182.451 59.576C182.451 59.576 182.451 58.6451 183.382 58.6451H194.553C194.553 58.6451 195.483 58.6451 195.483 59.576V70.7465C195.483 70.7465 195.483 71.6774 194.553 71.6774H189.898C189.898 71.6774 188.967 71.6774 188.967 70.7465V66.0921C188.967 66.0921 188.967 65.1613 188.036 65.1613H183.382C183.382 65.1613 182.451 65.1613 182.451 64.2304V59.576Z" fill="black"/>
<path d="M182.451 183.382C182.451 183.382 182.451 182.452 183.382 182.452H188.036C188.036 182.452 188.967 182.452 188.967 183.382V194.553C188.967 194.553 188.967 195.484 188.036 195.484H183.382C183.382 195.484 182.451 195.484 182.451 194.553V183.382Z" fill="black"/>
<path d="M188.967 79.1245C188.967 79.1245 188.967 78.1936 189.898 78.1936H194.552C194.552 78.1936 195.483 78.1936 195.483 79.1245V83.7789C195.483 83.7789 195.483 84.7097 194.552 84.7097H189.898C189.898 84.7097 188.967 84.7097 188.967 83.7789V79.1245Z" fill="black"/>
<path d="M188.967 176.866C188.967 176.866 188.967 175.935 189.898 175.935H194.552C194.552 175.935 195.483 175.935 195.483 176.866V181.521C195.483 181.521 195.483 182.452 194.552 182.452H189.898C189.898 182.452 188.967 182.452 188.967 181.521V176.866Z" fill="black"/>
</svg>
