<svg width="212" height="212" viewBox="0 0 212 212" fill="none" xmlns="http://www.w3.org/2000/svg">
<path d="M207 5H5V207H207V5Z" fill="white"/>
<path d="M11.5166 12.447C11.5166 12.447 11.5166 11.5161 12.4475 11.5161H56.1986C56.1986 11.5161 57.1295 11.5161 57.1295 12.447V56.1981C57.1295 56.1981 57.1295 57.129 56.1986 57.129H12.4475C12.4475 57.129 11.5166 57.129 11.5166 56.1981V12.447ZM18.9636 18.0322C18.9636 18.0322 18.0327 18.0322 18.0327 18.9631V49.682C18.0327 49.682 18.0327 50.6129 18.9636 50.6129H49.6825C49.6825 50.6129 50.6134 50.6129 50.6134 49.682V18.9631C50.6134 18.9631 50.6134 18.0322 49.6825 18.0322H18.9636Z" fill="black"/>
<path d="M11.5166 64.576C11.5166 64.576 11.5166 63.6451 12.4475 63.6451H17.1019C17.1019 63.6451 18.0327 63.6451 18.0327 64.576V69.2304C18.0327 69.2304 18.0327 70.1613 17.1019 70.1613H12.4475C12.4475 70.1613 11.5166 70.1613 11.5166 69.2304V64.576Z" fill="black"/>
<path d="M11.5166 84.1244C11.5166 84.1244 11.5166 83.1935 12.4475 83.1935H17.1019C17.1019 83.1935 18.0327 83.1935 18.0327 84.1244V88.7788C18.0327 88.7788 18.0327 89.7097 17.1019 89.7097H12.4475C12.4475 89.7097 11.5166 89.7097 11.5166 88.7788V84.1244Z" fill="black"/>
<path d="M11.5166 97.1567C11.5166 97.1567 11.5166 96.2258 12.4475 96.2258H17.1019C17.1019 96.2258 18.0327 96.2258 18.0327 97.1567V101.811C18.0327 101.811 18.0327 102.742 17.1019 102.742H12.4475C12.4475 102.742 11.5166 102.742 11.5166 101.811V97.1567Z" fill="black"/>
<path d="M24.5489 97.1567C24.5489 97.1567 24.5489 96.2258 25.4797 96.2258H30.1341C30.1341 96.2258 31.065 96.2258 31.065 97.1567V101.811C31.065 101.811 31.065 102.742 31.9959 102.742H36.6502C36.6502 102.742 37.5811 102.742 37.5811 103.673V108.327C37.5811 108.327 37.5811 109.258 36.6502 109.258H31.9959C31.9959 109.258 31.065 109.258 31.065 110.189V127.876C31.065 127.876 31.065 128.806 30.1341 128.806H18.9636C18.9636 128.806 18.0327 128.806 18.0327 127.876V116.705C18.0327 116.705 18.0327 115.774 17.1019 115.774H12.4475C12.4475 115.774 11.5166 115.774 11.5166 114.843V110.189C11.5166 110.189 11.5166 109.258 12.4475 109.258H23.618C23.618 109.258 24.5489 109.258 24.5489 108.327V97.1567Z" fill="black"/>
<path d="M11.5166 129.737C11.5166 129.737 11.5166 128.806 12.4475 128.806H17.1019C17.1019 128.806 18.0327 128.806 18.0327 129.737V134.392C18.0327 134.392 18.0327 135.323 17.1019 135.323H12.4475C12.4475 135.323 11.5166 135.323 11.5166 134.392V129.737Z" fill="black"/>
<path d="M11.5166 155.802C11.5166 155.802 11.5166 154.871 12.4475 154.871H56.1986C56.1986 154.871 57.1295 154.871 57.1295 155.802V199.553C57.1295 199.553 57.1295 200.484 56.1986 200.484H12.4475C12.4475 200.484 11.5166 200.484 11.5166 199.553V155.802ZM18.9636 161.387C18.9636 161.387 18.0327 161.387 18.0327 162.318V193.037C18.0327 193.037 18.0327 193.968 18.9636 193.968H49.6825C49.6825 193.968 50.6134 193.968 50.6134 193.037V162.318C50.6134 162.318 50.6134 161.387 49.6825 161.387H18.9636Z" fill="black"/>
<path d="M18.0322 71.0921C18.0322 71.0921 18.0322 70.1613 18.9631 70.1613H23.6175C23.6175 70.1613 24.5484 70.1613 24.5484 71.0921V82.2626C24.5484 82.2626 24.5484 83.1935 23.6175 83.1935H18.9631C18.9631 83.1935 18.0322 83.1935 18.0322 82.2626V71.0921Z" fill="black"/>
<path d="M18.0322 90.6405C18.0322 90.6405 18.0322 89.7097 18.9631 89.7097H23.6175C23.6175 89.7097 24.5484 89.7097 24.5484 90.6405V95.2949C24.5484 95.2949 24.5484 96.2258 23.6175 96.2258H18.9631C18.9631 96.2258 18.0322 96.2258 18.0322 95.2949V90.6405Z" fill="black"/>
<path d="M18.0322 142.77C18.0322 142.77 18.0322 141.839 18.9631 141.839H23.6175C23.6175 141.839 24.5484 141.839 24.5484 142.77V147.424C24.5484 147.424 24.5484 148.355 23.6175 148.355H18.9631C18.9631 148.355 18.0322 148.355 18.0322 147.424V142.77Z" fill="black"/>
<path d="M24.5488 25.4793C24.5488 25.4793 24.5488 24.5484 25.4797 24.5484H43.1663C43.1663 24.5484 44.0972 24.5484 44.0972 25.4793V43.1659C44.0972 43.1659 44.0972 44.0968 43.1663 44.0968H25.4797C25.4797 44.0968 24.5488 44.0968 24.5488 43.1659V25.4793Z" fill="black"/>
<path d="M24.5488 64.576C24.5488 64.576 24.5488 63.6451 25.4797 63.6451H36.6502C36.6502 63.6451 37.5811 63.6451 37.5811 64.576V69.2304C37.5811 69.2304 37.5811 70.1613 36.6502 70.1613H25.4797C25.4797 70.1613 24.5488 70.1613 24.5488 69.2304V64.576Z" fill="black"/>
<path d="M24.5488 168.834C24.5488 168.834 24.5488 167.903 25.4797 167.903H43.1663C43.1663 167.903 44.0972 167.903 44.0972 168.834V186.521C44.0972 186.521 44.0972 187.452 43.1663 187.452H25.4797C25.4797 187.452 24.5488 187.452 24.5488 186.521V168.834Z" fill="black"/>
<path d="M31.0645 77.6083C31.0645 77.6083 31.0645 76.6774 31.9953 76.6774H36.6497C36.6497 76.6774 37.5806 76.6774 37.5806 77.6083V82.2627C37.5806 82.2627 37.5806 83.1936 38.5115 83.1936H43.1658C43.1658 83.1936 44.0967 83.1936 44.0967 84.1244V88.7788C44.0967 88.7788 44.0967 89.7097 43.1658 89.7097H31.9953C31.9953 89.7097 31.0645 89.7097 31.0645 88.7788V77.6083Z" fill="black"/>
<path d="M76.6774 129.737C76.6774 129.737 76.6774 128.806 77.6082 128.806H82.2626C82.2626 128.806 83.1935 128.806 83.1935 129.737V134.392C83.1935 134.392 83.1935 135.323 84.1244 135.323H88.7787C88.7787 135.323 89.7096 135.323 89.7096 136.253V147.424C89.7096 147.424 89.7096 148.355 88.7787 148.355H84.1244C84.1244 148.355 83.1935 148.355 83.1935 149.286V153.94C83.1935 153.94 83.1935 154.871 82.2626 154.871H71.0921C71.0921 154.871 70.1612 154.871 70.1612 155.802V160.456C70.1612 160.456 70.1612 161.387 71.0921 161.387H75.7465C75.7465 161.387 76.6774 161.387 76.6774 162.318V166.972C76.6774 166.972 76.6774 167.903 75.7465 167.903H64.576C64.576 167.903 63.6451 167.903 63.6451 166.972V149.286C63.6451 149.286 63.6451 148.355 62.7142 148.355H38.5115C38.5115 148.355 37.5806 148.355 37.5806 147.424V142.77C37.5806 142.77 37.5806 141.839 36.6497 141.839H31.9953C31.9953 141.839 31.0645 141.839 31.0645 140.908V136.253C31.0645 136.253 31.0645 135.323 31.9953 135.323H43.1658C43.1658 135.323 44.0967 135.323 44.0967 136.253V140.908C44.0967 140.908 44.0967 141.839 45.0276 141.839H69.2304C69.2304 141.839 70.1612 141.839 70.1612 142.77V147.424C70.1612 147.424 70.1612 148.355 71.0921 148.355H75.7465C75.7465 148.355 76.6774 148.355 76.6774 147.424V129.737Z" fill="black"/>
<path d="M115.775 31.9954C115.775 31.9954 115.775 31.0645 116.705 31.0645H127.876C127.876 31.0645 128.807 31.0645 128.807 31.9954V36.6498C128.807 36.6498 128.807 37.5806 129.738 37.5806H140.908C140.908 37.5806 141.839 37.5806 141.839 38.5115V43.1659C141.839 43.1659 141.839 44.0968 142.77 44.0968H147.424C147.424 44.0968 148.355 44.0968 148.355 45.0276V69.2304C148.355 69.2304 148.355 70.1613 149.286 70.1613H153.941C153.941 70.1613 154.871 70.1613 154.871 69.2304V64.576C154.871 64.576 154.871 63.6452 155.802 63.6452H160.457C160.457 63.6452 161.388 63.6452 161.388 64.576V75.7465C161.388 75.7465 161.388 76.6774 162.318 76.6774H166.973C166.973 76.6774 167.904 76.6774 167.904 75.7465V71.0922C167.904 71.0922 167.904 70.1613 168.835 70.1613H173.489C173.489 70.1613 174.42 70.1613 174.42 71.0922V82.2627C174.42 82.2627 174.42 83.1935 173.489 83.1935H149.286C149.286 83.1935 148.355 83.1935 148.355 82.2627V77.6083C148.355 77.6083 148.355 76.6774 147.424 76.6774H136.254C136.254 76.6774 135.323 76.6774 135.323 75.7465V71.0922C135.323 71.0922 135.323 70.1613 134.392 70.1613H123.222C123.222 70.1613 122.291 70.1613 122.291 71.0922V75.7465C122.291 75.7465 122.291 76.6774 121.36 76.6774H116.705C116.705 76.6774 115.775 76.6774 115.775 77.6083V88.7788C115.775 88.7788 115.775 89.7097 114.844 89.7097H90.641C90.641 89.7097 89.7101 89.7097 89.7101 90.6405V108.327C89.7101 108.327 89.7101 109.258 88.7792 109.258H77.6087C77.6087 109.258 76.6778 109.258 76.6778 110.189V114.843C76.6778 114.843 76.6778 115.774 77.6087 115.774H88.7792C88.7792 115.774 89.7101 115.774 89.7101 116.705V121.359C89.7101 121.359 89.7101 122.29 88.7792 122.29H71.0926C71.0926 122.29 70.1617 122.29 70.1617 123.221V134.392C70.1617 134.392 70.1617 135.323 69.2308 135.323H45.0281C45.0281 135.323 44.0972 135.323 44.0972 134.392V129.737C44.0972 129.737 44.0972 128.806 45.0281 128.806H56.1986C56.1986 128.806 57.1294 128.806 57.1294 127.876V123.221C57.1294 123.221 57.1294 122.29 56.1986 122.29H45.0281C45.0281 122.29 44.0972 122.29 44.0972 123.221V127.876C44.0972 127.876 44.0972 128.806 43.1663 128.806H38.5119C38.5119 128.806 37.5811 128.806 37.5811 127.876V116.705C37.5811 116.705 37.5811 115.774 38.5119 115.774H56.1986C56.1986 115.774 57.1294 115.774 57.1294 114.843V110.189C57.1294 110.189 57.1294 109.258 56.1986 109.258H45.0281C45.0281 109.258 44.0972 109.258 44.0972 108.327V103.673C44.0972 103.673 44.0972 102.742 43.1663 102.742H38.5119C38.5119 102.742 37.5811 102.742 37.5811 101.811V97.1567C37.5811 97.1567 37.5811 96.2258 38.5119 96.2258H49.6824C49.6824 96.2258 50.6133 96.2258 50.6133 97.1567V101.811C50.6133 101.811 50.6133 102.742 51.5442 102.742H62.7147C62.7147 102.742 63.6456 102.742 63.6456 103.673V114.843C63.6456 114.843 63.6456 115.774 64.5765 115.774H69.2308C69.2308 115.774 70.1617 115.774 70.1617 114.843V103.673C70.1617 103.673 70.1617 102.742 71.0926 102.742H82.2631C82.2631 102.742 83.194 102.742 83.194 101.811V90.6405C83.194 90.6405 83.194 89.7097 82.2631 89.7097H71.0926C71.0926 89.7097 70.1617 89.7097 70.1617 88.7788V84.1244C70.1617 84.1244 70.1617 83.1935 71.0926 83.1935H75.747C75.747 83.1935 76.6778 83.1935 76.6778 82.2627V77.6083C76.6778 77.6083 76.6778 76.6774 75.747 76.6774H71.0926C71.0926 76.6774 70.1617 76.6774 70.1617 75.7465V71.0922C70.1617 71.0922 70.1617 70.1613 71.0926 70.1613H82.2631C82.2631 70.1613 83.194 70.1613 83.194 69.2304V58.0599C83.194 58.0599 83.194 57.129 84.1248 57.129H88.7792C88.7792 57.129 89.7101 57.129 89.7101 58.0599V62.7143C89.7101 62.7143 89.7101 63.6452 90.641 63.6452H95.2953C95.2953 63.6452 96.2262 63.6452 96.2262 62.7143V58.0599C96.2262 58.0599 96.2262 57.129 97.1571 57.129H101.811C101.811 57.129 102.742 57.129 102.742 56.1982V45.0276C102.742 45.0276 102.742 44.0968 103.673 44.0968H108.328C108.328 44.0968 109.258 44.0968 109.258 45.0276V69.2304C109.258 69.2304 109.258 70.1613 108.328 70.1613H90.641C90.641 70.1613 89.7101 70.1613 89.7101 71.0922V75.7465C89.7101 75.7465 89.7101 76.6774 88.7792 76.6774H84.1248C84.1248 76.6774 83.194 76.6774 83.194 77.6083V82.2627C83.194 82.2627 83.194 83.1935 84.1248 83.1935H101.811C101.811 83.1935 102.742 83.1935 102.742 82.2627V77.6083C102.742 77.6083 102.742 76.6774 103.673 76.6774H108.328C108.328 76.6774 109.258 76.6774 109.258 75.7465V71.0922C109.258 71.0922 109.258 70.1613 110.189 70.1613H114.844C114.844 70.1613 115.775 70.1613 115.775 69.2304V64.576C115.775 64.576 115.775 63.6452 116.705 63.6452H121.36C121.36 63.6452 122.291 63.6452 122.291 62.7143V58.0599C122.291 58.0599 122.291 57.129 123.222 57.129H127.876C127.876 57.129 128.807 57.129 128.807 58.0599V62.7143C128.807 62.7143 128.807 63.6452 129.738 63.6452H134.392C134.392 63.6452 135.323 63.6452 135.323 62.7143V58.0599C135.323 58.0599 135.323 57.129 136.254 57.129H140.908C140.908 57.129 141.839 57.129 141.839 56.1982V51.5438C141.839 51.5438 141.839 50.6129 140.908 50.6129H136.254C136.254 50.6129 135.323 50.6129 135.323 49.682V45.0276C135.323 45.0276 135.323 44.0968 134.392 44.0968H123.222C123.222 44.0968 122.291 44.0968 122.291 43.1659V38.5115C122.291 38.5115 122.291 37.5806 121.36 37.5806H116.705C116.705 37.5806 115.775 37.5806 115.775 36.6498V31.9954Z" fill="black"/>
<path d="M44.0967 64.576C44.0967 64.576 44.0967 63.6451 45.0276 63.6451H62.7142C62.7142 63.6451 63.6451 63.6451 63.6451 64.576V75.7465C63.6451 75.7465 63.6451 76.6774 62.7142 76.6774H58.0598C58.0598 76.6774 57.1289 76.6774 57.1289 75.7465V71.0921C57.1289 71.0921 57.1289 70.1613 56.1981 70.1613H45.0276C45.0276 70.1613 44.0967 70.1613 44.0967 69.2304V64.576Z" fill="black"/>
<path d="M50.6133 77.6083C50.6133 77.6083 50.6133 76.6774 51.5442 76.6774H56.1985C56.1985 76.6774 57.1294 76.6774 57.1294 77.6083V82.2627C57.1294 82.2627 57.1294 83.1936 56.1985 83.1936H51.5442C51.5442 83.1936 50.6133 83.1936 50.6133 82.2627V77.6083Z" fill="black"/>
<path d="M50.6133 90.6405C50.6133 90.6405 50.6133 89.7097 51.5442 89.7097H56.1985C56.1985 89.7097 57.1294 89.7097 57.1294 90.6405V95.2949C57.1294 95.2949 57.1294 96.2258 56.1985 96.2258H51.5442C51.5442 96.2258 50.6133 96.2258 50.6133 95.2949V90.6405Z" fill="black"/>
<path d="M57.1289 84.1244C57.1289 84.1244 57.1289 83.1935 58.0598 83.1935H62.7142C62.7142 83.1935 63.645 83.1935 63.645 84.1244V88.7788C63.645 88.7788 63.645 89.7097 62.7142 89.7097H58.0598C58.0598 89.7097 57.1289 89.7097 57.1289 88.7788V84.1244Z" fill="black"/>
<path d="M63.6455 12.447C63.6455 12.447 63.6455 11.5161 64.5764 11.5161H69.2308C69.2308 11.5161 70.1616 11.5161 70.1616 12.447V23.6175C70.1616 23.6175 70.1616 24.5484 69.2308 24.5484H64.5764C64.5764 24.5484 63.6455 24.5484 63.6455 23.6175V12.447Z" fill="black"/>
<path d="M109.258 12.447C109.258 12.447 109.258 11.5161 110.189 11.5161H140.908C140.908 11.5161 141.839 11.5161 141.839 12.447V17.1014C141.839 17.1014 141.839 18.0322 140.908 18.0322H136.254C136.254 18.0322 135.323 18.0322 135.323 18.9631V23.6175C135.323 23.6175 135.323 24.5484 136.254 24.5484H140.908C140.908 24.5484 141.839 24.5484 141.839 23.6175V18.9631C141.839 18.9631 141.839 18.0322 142.77 18.0322H147.424C147.424 18.0322 148.355 18.0322 148.355 18.9631V36.6498C148.355 36.6498 148.355 37.5806 147.424 37.5806H142.77C142.77 37.5806 141.839 37.5806 141.839 36.6498V31.9954C141.839 31.9954 141.839 31.0645 140.908 31.0645H129.738C129.738 31.0645 128.807 31.0645 128.807 30.1336V18.9631C128.807 18.9631 128.807 18.0322 127.876 18.0322H116.705C116.705 18.0322 115.775 18.0322 115.775 18.9631V30.1336C115.775 30.1336 115.775 31.0645 114.844 31.0645H97.157C97.157 31.0645 96.2262 31.0645 96.2262 31.9954V36.6498C96.2262 36.6498 96.2262 37.5806 97.157 37.5806H101.811C101.811 37.5806 102.742 37.5806 102.742 38.5115V43.1659C102.742 43.1659 102.742 44.0968 101.811 44.0968H97.157C97.157 44.0968 96.2262 44.0968 96.2262 45.0276V56.1981C96.2262 56.1981 96.2261 57.129 95.2953 57.129H90.6409C90.6409 57.129 89.71 57.129 89.71 56.1981V51.5438C89.71 51.5438 89.71 50.6129 88.7791 50.6129H84.1248C84.1248 50.6129 83.1939 50.6129 83.1939 51.5438V56.1981C83.1939 56.1981 83.1939 57.129 82.263 57.129H77.6086C77.6086 57.129 76.6778 57.129 76.6778 56.1981V45.0276C76.6778 45.0276 76.6778 44.0968 77.6086 44.0968H88.7791C88.7791 44.0968 89.71 44.0968 89.71 43.1659V38.5115C89.71 38.5115 89.71 37.5806 88.7791 37.5806H77.6086C77.6086 37.5806 76.6778 37.5806 76.6778 38.5115V43.1659C76.6778 43.1659 76.6778 44.0968 75.7469 44.0968H71.0925C71.0925 44.0968 70.1616 44.0968 70.1616 43.1659V38.5115C70.1616 38.5115 70.1616 37.5806 69.2308 37.5806H64.5764C64.5764 37.5806 63.6455 37.5806 63.6455 36.6498V31.9954C63.6455 31.9954 63.6455 31.0645 64.5764 31.0645H69.2308C69.2308 31.0645 70.1616 31.0645 70.1616 30.1336V25.4792C70.1616 25.4792 70.1616 24.5484 71.0925 24.5484H75.7469C75.7469 24.5484 76.6778 24.5484 76.6778 25.4792V30.1336C76.6778 30.1336 76.6778 31.0645 77.6086 31.0645H82.263C82.263 31.0645 83.1939 31.0645 83.1939 30.1336V25.4792C83.1939 25.4792 83.1939 24.5484 84.1248 24.5484H101.811C101.811 24.5484 102.742 24.5484 102.742 23.6175V18.9631C102.742 18.9631 102.742 18.0322 103.673 18.0322H108.328C108.328 18.0322 109.258 18.0322 109.258 17.1014V12.447Z" fill="black"/>
<path d="M63.6455 51.5438C63.6455 51.5438 63.6455 50.6129 64.5764 50.6129H69.2308C69.2308 50.6129 70.1616 50.6129 70.1616 51.5438V56.1982C70.1616 56.1982 70.1616 57.129 71.0925 57.129H75.7469C75.7469 57.129 76.6778 57.129 76.6778 58.0599V62.7143C76.6778 62.7143 76.6778 63.6452 75.7469 63.6452H64.5764C64.5764 63.6452 63.6455 63.6452 63.6455 62.7143V51.5438Z" fill="black"/>
<path d="M63.6455 90.6405C63.6455 90.6405 63.6455 89.7097 64.5764 89.7097H69.2308C69.2308 89.7097 70.1616 89.7097 70.1616 90.6405V95.2949C70.1616 95.2949 70.1616 96.2258 69.2308 96.2258H64.5764C64.5764 96.2258 63.6455 96.2258 63.6455 95.2949V90.6405Z" fill="black"/>
<path d="M63.6455 175.35C63.6455 175.35 63.6455 174.419 64.5764 174.419H69.2308C69.2308 174.419 70.1616 174.419 70.1616 175.35V180.005C70.1616 180.005 70.1616 180.936 71.0925 180.936H82.263C82.263 180.936 83.1939 180.935 83.1939 181.866V193.037C83.1939 193.037 83.1939 193.968 82.263 193.968H77.6086C77.6086 193.968 76.6778 193.968 76.6778 193.037V188.383C76.6778 188.383 76.6778 187.452 75.7469 187.452H64.5764C64.5764 187.452 63.6455 187.452 63.6455 186.521V175.35Z" fill="black"/>
<path d="M63.6455 194.899C63.6455 194.899 63.6455 193.968 64.5764 193.968H75.7469C75.7469 193.968 76.6778 193.968 76.6778 194.899V199.553C76.6778 199.553 76.6778 200.484 75.7469 200.484H64.5764C64.5764 200.484 63.6455 200.484 63.6455 199.553V194.899Z" fill="black"/>
<path d="M83.1934 12.447C83.1934 12.447 83.1934 11.5161 84.1242 11.5161H95.2947C95.2947 11.5161 96.2256 11.5161 96.2256 12.447V17.1014C96.2256 17.1014 96.2256 18.0322 95.2947 18.0322H84.1242C84.1242 18.0322 83.1934 18.0322 83.1934 17.1014V12.447Z" fill="black"/>
<path d="M83.1934 155.802C83.1934 155.802 83.1934 154.871 84.1242 154.871H88.7786C88.7786 154.871 89.7095 154.871 89.7095 155.802V160.456C89.7095 160.456 89.7095 161.387 88.7786 161.387H84.1242C84.1242 161.387 83.1934 161.387 83.1934 160.456V155.802Z" fill="black"/>
<path d="M83.1934 194.899C83.1934 194.899 83.1934 193.968 84.1242 193.968H88.7786C88.7786 193.968 89.7095 193.968 89.7095 194.899V199.553C89.7095 199.553 89.7095 200.484 88.7786 200.484H84.1242C84.1242 200.484 83.1934 200.484 83.1934 199.553V194.899Z" fill="black"/>
<path d="M89.71 110.189C89.71 110.189 89.71 109.258 90.6408 109.258H101.811C101.811 109.258 102.742 109.258 102.742 110.189V114.843C102.742 114.843 102.742 115.774 101.811 115.774H90.6408C90.6408 115.774 89.71 115.774 89.71 114.843V110.189Z" fill="black"/>
<path d="M89.71 123.221C89.71 123.221 89.71 122.29 90.6408 122.29H101.811C101.811 122.29 102.742 122.29 102.742 123.221V127.876C102.742 127.876 102.742 128.806 101.811 128.806H97.157C97.157 128.806 96.2261 128.806 96.2261 129.737V134.392C96.2261 134.392 96.2261 135.323 95.2952 135.323H90.6408C90.6408 135.323 89.71 135.323 89.71 134.392V123.221Z" fill="black"/>
<path d="M96.2261 142.77C96.2261 142.77 96.2261 141.839 97.157 141.839H101.811C101.811 141.839 102.742 141.839 102.742 142.77V147.424C102.742 147.424 102.742 148.355 103.673 148.355H108.327C108.327 148.355 109.258 148.355 109.258 149.286V153.94C109.258 153.94 109.258 154.871 108.327 154.871H103.673C103.673 154.871 102.742 154.871 102.742 155.802V160.456C102.742 160.456 102.742 161.387 101.811 161.387H97.157C97.157 161.387 96.2261 161.387 96.2261 160.456V155.802C96.2261 155.802 96.2261 154.871 95.2952 154.871H90.6408C90.6408 154.871 89.71 154.871 89.71 153.94V149.286C89.71 149.286 89.71 148.355 90.6408 148.355H95.2952C95.2952 148.355 96.2261 148.355 96.2261 147.424V142.77Z" fill="black"/>
<path d="M89.71 162.318C89.71 162.318 89.71 161.387 90.6408 161.387H95.2952C95.2952 161.387 96.2261 161.387 96.2261 162.318V166.972C96.2261 166.972 96.2261 167.903 95.2952 167.903H90.6408C90.6408 167.903 89.71 167.903 89.71 166.972V162.318Z" fill="black"/>
<path d="M135.323 97.1567C135.323 97.1567 135.323 96.2258 136.254 96.2258H140.908C140.908 96.2258 141.839 96.2258 141.839 97.1567V108.327C141.839 108.327 141.839 109.258 142.77 109.258H153.94C153.94 109.258 154.871 109.258 154.871 108.327V103.673C154.871 103.673 154.871 102.742 153.94 102.742H149.286C149.286 102.742 148.355 102.742 148.355 101.811V97.1567C148.355 97.1567 148.355 96.2258 149.286 96.2258H160.457C160.457 96.2258 161.387 96.2258 161.387 97.1567V101.811C161.387 101.811 161.387 102.742 162.318 102.742H186.521C186.521 102.742 187.452 102.742 187.452 101.811V97.1567C187.452 97.1567 187.452 96.2258 188.383 96.2258H199.553C199.553 96.2258 200.484 96.2258 200.484 97.1567V108.327C200.484 108.327 200.484 109.258 199.553 109.258H194.899C194.899 109.258 193.968 109.258 193.968 110.189V127.876C193.968 127.876 193.968 128.806 193.037 128.806H188.383C188.383 128.806 187.452 128.806 187.452 129.737V147.424C187.452 147.424 187.452 148.355 188.383 148.355H199.553C199.553 148.355 200.484 148.355 200.484 149.286V153.94C200.484 153.94 200.484 154.871 199.553 154.871H194.899C194.899 154.871 193.968 154.871 193.968 155.802V160.456C193.968 160.456 193.968 161.387 194.899 161.387H199.553C199.553 161.387 200.484 161.387 200.484 162.318V166.972C200.484 166.972 200.484 167.903 199.553 167.903H194.899C194.899 167.903 193.968 167.903 193.968 168.834V173.489C193.968 173.489 193.968 174.419 193.037 174.419H188.383C188.383 174.419 187.452 174.419 187.452 175.35V180.005C187.452 180.005 187.452 180.936 186.521 180.936H181.867C181.867 180.936 180.936 180.936 180.936 180.005V168.834C180.936 168.834 180.936 167.903 181.867 167.903H186.521C186.521 167.903 187.452 167.903 187.452 166.972V155.802C187.452 155.802 187.452 154.871 186.521 154.871H181.867C181.867 154.871 180.936 154.871 180.936 155.802V160.456C180.936 160.456 180.936 161.387 180.005 161.387H175.351C175.351 161.387 174.42 161.387 174.42 162.318V180.005C174.42 180.005 174.42 180.936 173.489 180.936H168.834C168.834 180.936 167.904 180.936 167.904 181.866V186.521C167.904 186.521 167.904 187.452 166.973 187.452H162.318C162.318 187.452 161.387 187.452 161.387 186.521V175.35C161.387 175.35 161.387 174.419 160.457 174.419H149.286C149.286 174.419 148.355 174.419 148.355 175.35V193.037C148.355 193.037 148.355 193.968 149.286 193.968H153.94C153.94 193.968 154.871 193.968 154.871 193.037V188.383C154.871 188.383 154.871 187.452 155.802 187.452H160.457C160.457 187.452 161.387 187.452 161.387 188.383V199.553C161.387 199.553 161.387 200.484 160.457 200.484H129.738C129.738 200.484 128.807 200.484 128.807 199.553V194.899C128.807 194.899 128.807 193.968 129.738 193.968H140.908C140.908 193.968 141.839 193.968 141.839 193.037V188.383C141.839 188.383 141.839 187.452 140.908 187.452H136.254C136.254 187.452 135.323 187.452 135.323 186.521V181.866C135.323 181.866 135.323 180.936 134.392 180.936H129.738C129.738 180.936 128.807 180.936 128.807 181.866V186.521C128.807 186.521 128.807 187.452 127.876 187.452H123.221C123.221 187.452 122.291 187.452 122.291 186.521V181.866C122.291 181.866 122.291 180.936 121.36 180.936H110.189C110.189 180.936 109.258 180.936 109.258 181.866V186.521C109.258 186.521 109.258 187.452 108.327 187.452H103.673C103.673 187.452 102.742 187.452 102.742 188.383V193.037C102.742 193.037 102.742 193.968 101.811 193.968H97.157C97.157 193.968 96.2261 193.968 96.2261 193.037V188.383C96.2261 188.383 96.2261 187.452 95.2952 187.452H90.6408C90.6408 187.452 89.71 187.452 89.71 186.521V181.866C89.71 181.866 89.71 180.936 90.6408 180.936H95.2952C95.2952 180.936 96.2261 180.936 96.2261 180.005V175.35C96.2261 175.35 96.2261 174.419 97.157 174.419H101.811C101.811 174.419 102.742 174.419 102.742 173.489V168.834C102.742 168.834 102.742 167.903 103.673 167.903H108.327C108.327 167.903 109.258 167.903 109.258 168.834V173.489C109.258 173.489 109.258 174.419 110.189 174.419H121.36C121.36 174.419 122.291 174.419 122.291 173.489V168.834C122.291 168.834 122.291 167.903 123.221 167.903H127.876C127.876 167.903 128.807 167.903 128.807 168.834V173.489C128.807 173.489 128.807 174.419 129.738 174.419H140.908C140.908 174.419 141.839 174.419 141.839 173.489V162.318C141.839 162.318 141.839 161.387 140.908 161.387H136.254C136.254 161.387 135.323 161.387 135.323 162.318V166.972C135.323 166.972 135.323 167.903 134.392 167.903H129.738C129.738 167.903 128.807 167.903 128.807 166.972V155.802C128.807 155.802 128.807 154.871 127.876 154.871H116.705C116.705 154.871 115.774 154.871 115.774 153.94V149.286C115.774 149.286 115.774 148.355 116.705 148.355H121.36C121.36 148.355 122.291 148.355 122.291 147.424V136.253C122.291 136.253 122.291 135.323 123.221 135.323H127.876C127.876 135.323 128.807 135.323 128.807 136.253V140.908C128.807 140.908 128.807 141.839 129.738 141.839H134.392C134.392 141.839 135.323 141.839 135.323 142.77V153.94C135.323 153.94 135.323 154.871 136.254 154.871H140.908C140.908 154.871 141.839 154.871 141.839 153.94V142.77C141.839 142.77 141.839 141.839 142.77 141.839H147.424C147.424 141.839 148.355 141.839 148.355 140.908V136.253C148.355 136.253 148.355 135.323 149.286 135.323H153.94C153.94 135.323 154.871 135.323 154.871 136.253V140.908C154.871 140.908 154.871 141.839 155.802 141.839H166.973C166.973 141.839 167.904 141.839 167.904 140.908V136.253C167.904 136.253 167.904 135.323 166.973 135.323H162.318C162.318 135.323 161.387 135.323 161.387 134.392V123.221C161.387 123.221 161.387 122.29 162.318 122.29H166.973C166.973 122.29 167.904 122.29 167.904 123.221V127.876C167.904 127.876 167.904 128.806 168.834 128.806H180.005C180.005 128.806 180.936 128.806 180.936 127.876V123.221C180.936 123.221 180.936 122.29 181.867 122.29H186.521C186.521 122.29 187.452 122.29 187.452 121.359V110.189C187.452 110.189 187.452 109.258 186.521 109.258H175.351C175.351 109.258 174.42 109.258 174.42 110.189V121.359C174.42 121.359 174.42 122.29 173.489 122.29H168.834C168.834 122.29 167.904 122.29 167.904 121.359V110.189C167.904 110.189 167.904 109.258 166.973 109.258H162.318C162.318 109.258 161.387 109.258 161.387 110.189V114.843C161.387 114.843 161.387 115.774 160.457 115.774H155.802C155.802 115.774 154.871 115.774 154.871 116.705V127.876C154.871 127.876 154.871 128.806 153.94 128.806H142.77C142.77 128.806 141.839 128.806 141.839 127.876V123.221C141.839 123.221 141.839 122.29 142.77 122.29H147.424C147.424 122.29 148.355 122.29 148.355 121.359V116.705C148.355 116.705 148.355 115.774 147.424 115.774H136.254C136.254 115.774 135.323 115.774 135.323 114.843V110.189C135.323 110.189 135.323 109.258 134.392 109.258H123.221C123.221 109.258 122.291 109.258 122.291 108.327V103.673C122.291 103.673 122.291 102.742 123.221 102.742H134.392C134.392 102.742 135.323 102.742 135.323 101.811V97.1567ZM175.351 135.323C175.351 135.323 174.42 135.323 174.42 136.253V140.908C174.42 140.908 174.42 141.839 175.351 141.839H180.005C180.005 141.839 180.936 141.839 180.936 140.908V136.253C180.936 136.253 180.936 135.323 180.005 135.323H175.351ZM149.286 148.355C149.286 148.355 148.355 148.355 148.355 149.286V166.972C148.355 166.972 148.355 167.903 149.286 167.903H166.973C166.973 167.903 167.904 167.903 167.904 166.972V149.286C167.904 149.286 167.904 148.355 166.973 148.355H149.286Z" fill="black"/>
<path d="M96.2256 97.1567C96.2256 97.1567 96.2256 96.2258 97.1565 96.2258H101.811C101.811 96.2258 102.742 96.2258 102.742 97.1567V101.811C102.742 101.811 102.742 102.742 101.811 102.742H97.1565C97.1565 102.742 96.2256 102.742 96.2256 101.811V97.1567Z" fill="black"/>
<path d="M102.742 103.673C102.742 103.673 102.742 102.742 103.673 102.742H108.327C108.327 102.742 109.258 102.742 109.258 103.673V108.327C109.258 108.327 109.258 109.258 108.327 109.258H103.673C103.673 109.258 102.742 109.258 102.742 108.327V103.673Z" fill="black"/>
<path d="M109.258 116.705C109.258 116.705 109.258 115.774 110.189 115.774H114.843C114.843 115.774 115.774 115.774 115.774 116.705V121.359C115.774 121.359 115.774 122.29 116.705 122.29H121.359C121.359 122.29 122.29 122.29 122.29 123.221V134.392C122.29 134.392 122.29 135.323 121.359 135.323H116.705C116.705 135.323 115.774 135.323 115.774 136.253V140.908C115.774 140.908 115.774 141.839 114.843 141.839H110.189C110.189 141.839 109.258 141.839 109.258 140.908V116.705Z" fill="black"/>
<path d="M109.258 188.382C109.258 188.382 109.258 187.452 110.189 187.452H114.843C114.843 187.452 115.774 187.452 115.774 188.382V193.037C115.774 193.037 115.774 193.968 114.843 193.968H110.189C110.189 193.968 109.258 193.968 109.258 193.037V188.382Z" fill="black"/>
<path d="M115.774 51.5438C115.774 51.5438 115.774 50.6129 116.705 50.6129H121.36C121.36 50.6129 122.291 50.6129 122.291 51.5438V56.1982C122.291 56.1982 122.291 57.129 121.36 57.129H116.705C116.705 57.129 115.774 57.129 115.774 56.1982V51.5438Z" fill="black"/>
<path d="M115.774 110.189C115.774 110.189 115.774 109.258 116.705 109.258H121.36C121.36 109.258 122.291 109.258 122.291 110.189V114.843C122.291 114.843 122.291 115.774 121.36 115.774H116.705C116.705 115.774 115.774 115.774 115.774 114.843V110.189Z" fill="black"/>
<path d="M122.29 90.6405C122.29 90.6405 122.29 89.7097 123.221 89.7097H127.875C127.875 89.7097 128.806 89.7097 128.806 90.6405V95.2949C128.806 95.2949 128.806 96.2258 127.875 96.2258H123.221C123.221 96.2258 122.29 96.2258 122.29 95.2949V90.6405Z" fill="black"/>
<path d="M128.807 51.5438C128.807 51.5438 128.807 50.6129 129.738 50.6129H134.392C134.392 50.6129 135.323 50.6129 135.323 51.5438V56.1982C135.323 56.1982 135.323 57.129 134.392 57.129H129.738C129.738 57.129 128.807 57.129 128.807 56.1982V51.5438Z" fill="black"/>
<path d="M128.807 116.705C128.807 116.705 128.807 115.774 129.738 115.774H134.392C134.392 115.774 135.323 115.774 135.323 116.705V134.392C135.323 134.392 135.323 135.323 134.392 135.323H129.738C129.738 135.323 128.807 135.323 128.807 134.392V116.705Z" fill="black"/>
<path d="M135.322 84.1244C135.322 84.1244 135.322 83.1935 136.253 83.1935H147.424C147.424 83.1935 148.355 83.1935 148.355 84.1244V88.7788C148.355 88.7788 148.355 89.7097 147.424 89.7097H136.253C136.253 89.7097 135.322 89.7097 135.322 88.7788V84.1244Z" fill="black"/>
<path d="M135.322 136.253C135.322 136.253 135.322 135.323 136.253 135.323H140.908C140.908 135.323 141.838 135.323 141.838 136.253V140.908C141.838 140.908 141.838 141.839 140.908 141.839H136.253C136.253 141.839 135.322 141.839 135.322 140.908V136.253Z" fill="black"/>
<path d="M154.871 12.447C154.871 12.447 154.871 11.5161 155.802 11.5161H199.553C199.553 11.5161 200.484 11.5161 200.484 12.447V56.1981C200.484 56.1981 200.484 57.129 199.553 57.129H155.802C155.802 57.129 154.871 57.129 154.871 56.1981V12.447ZM162.318 18.0322C162.318 18.0322 161.387 18.0322 161.387 18.9631V49.682C161.387 49.682 161.387 50.6129 162.318 50.6129H193.037C193.037 50.6129 193.968 50.6129 193.968 49.682V18.9631C193.968 18.9631 193.968 18.0322 193.037 18.0322H162.318Z" fill="black"/>
<path d="M154.871 155.802C154.871 155.802 154.871 154.871 155.802 154.871H160.456C160.456 154.871 161.387 154.871 161.387 155.802V160.456C161.387 160.456 161.387 161.387 160.456 161.387H155.802C155.802 161.387 154.871 161.387 154.871 160.456V155.802Z" fill="black"/>
<path d="M161.387 90.6405C161.387 90.6405 161.387 89.7097 162.318 89.7097H166.972C166.972 89.7097 167.903 89.7097 167.903 90.6405V95.2949C167.903 95.2949 167.903 96.2258 166.972 96.2258H162.318C162.318 96.2258 161.387 96.2258 161.387 95.2949V90.6405Z" fill="black"/>
<path d="M167.903 25.4793C167.903 25.4793 167.903 24.5484 168.834 24.5484H186.521C186.521 24.5484 187.452 24.5484 187.452 25.4793V43.1659C187.452 43.1659 187.452 44.0968 186.521 44.0968H168.834C168.834 44.0968 167.903 44.0968 167.903 43.1659V25.4793Z" fill="black"/>
<path d="M167.903 188.382C167.903 188.382 167.903 187.452 168.834 187.452H180.005C180.005 187.452 180.936 187.452 180.936 188.382V193.037C180.936 193.037 180.936 193.968 180.005 193.968H168.834C168.834 193.968 167.903 193.968 167.903 193.037V188.382Z" fill="black"/>
<path d="M174.419 64.576C174.419 64.576 174.419 63.6451 175.35 63.6451H180.004C180.004 63.6451 180.935 63.6451 180.935 64.576V69.2304C180.935 69.2304 180.935 70.1613 180.004 70.1613H175.35C175.35 70.1613 174.419 70.1613 174.419 69.2304V64.576Z" fill="black"/>
<path d="M174.419 84.1244C174.419 84.1244 174.419 83.1935 175.35 83.1935H180.004C180.004 83.1935 180.935 83.1935 180.935 84.1244V88.7788C180.935 88.7788 180.935 89.7097 181.866 89.7097H186.52C186.52 89.7097 187.451 89.7097 187.451 90.6406V95.2949C187.451 95.2949 187.451 96.2258 186.52 96.2258H175.35C175.35 96.2258 174.419 96.2258 174.419 95.2949V84.1244Z" fill="black"/>
<path d="M180.936 77.6083C180.936 77.6083 180.936 76.6774 181.866 76.6774H193.037C193.037 76.6774 193.968 76.6774 193.968 77.6083V82.2627C193.968 82.2627 193.968 83.1936 193.037 83.1936H181.866C181.866 83.1936 180.936 83.1936 180.936 82.2627V77.6083Z" fill="black"/>
<path d="M187.451 64.576C187.451 64.576 187.451 63.6451 188.382 63.6451H199.553C199.553 63.6451 200.483 63.6451 200.483 64.576V75.7465C200.483 75.7465 200.483 76.6774 199.553 76.6774H194.898C194.898 76.6774 193.967 76.6774 193.967 75.7465V71.0921C193.967 71.0921 193.967 70.1613 193.036 70.1613H188.382C188.382 70.1613 187.451 70.1613 187.451 69.2304V64.576Z" fill="black"/>
<path d="M187.451 188.382C187.451 188.382 187.451 187.452 188.382 187.452H193.036C193.036 187.452 193.967 187.452 193.967 188.382V199.553C193.967 199.553 193.967 200.484 193.036 200.484H188.382C188.382 200.484 187.451 200.484 187.451 199.553V188.382Z" fill="black"/>
<path d="M193.968 84.1244C193.968 84.1244 193.968 83.1935 194.899 83.1935H199.553C199.553 83.1935 200.484 83.1935 200.484 84.1244V88.7788C200.484 88.7788 200.484 89.7097 199.553 89.7097H194.899C194.899 89.7097 193.968 89.7097 193.968 88.7788V84.1244Z" fill="black"/>
<path d="M193.968 175.35C193.968 175.35 193.968 174.419 194.899 174.419H199.553C199.553 174.419 200.484 174.419 200.484 175.35V186.521C200.484 186.521 200.484 187.452 199.553 187.452H194.899C194.899 187.452 193.968 187.452 193.968 186.521V175.35Z" fill="black"/>
<rect x="2.5" y="2.5" width="207" height="207" rx="12.5" stroke="white" stroke-width="5"/>
</svg>
