<svg width="212" height="212" viewBox="0 0 212 212" fill="none" xmlns="http://www.w3.org/2000/svg">
<g clip-path="url(#clip0)">
<path d="M207 5H5V207H207V5Z" fill="white"/>
<path d="M11.5166 12.447C11.5166 12.447 11.5166 11.5161 12.4475 11.5161H56.1986C56.1986 11.5161 57.1295 11.5161 57.1295 12.447V56.1982C57.1295 56.1982 57.1295 57.129 56.1986 57.129H12.4475C12.4475 57.129 11.5166 57.129 11.5166 56.1982V12.447ZM18.9636 18.0323C18.9636 18.0323 18.0327 18.0323 18.0327 18.9631V49.682C18.0327 49.682 18.0327 50.6129 18.9636 50.6129H49.6825C49.6825 50.6129 50.6134 50.6129 50.6134 49.682V18.9631C50.6134 18.9631 50.6134 18.0323 49.6825 18.0323H18.9636Z" fill="black"/>
<path d="M11.5166 64.576C11.5166 64.576 11.5166 63.6452 12.4475 63.6452H17.1019C17.1019 63.6452 18.0327 63.6452 18.0327 64.576V69.2304C18.0327 69.2304 18.0327 70.1613 17.1019 70.1613H12.4475C12.4475 70.1613 11.5166 70.1613 11.5166 69.2304V64.576Z" fill="black"/>
<path d="M11.5166 77.6083C11.5166 77.6083 11.5166 76.6774 12.4475 76.6774H17.1019C17.1019 76.6774 18.0327 76.6774 18.0327 77.6083V82.2627C18.0327 82.2627 18.0327 83.1935 17.1019 83.1935H12.4475C12.4475 83.1935 11.5166 83.1935 11.5166 82.2627V77.6083Z" fill="black"/>
<path d="M11.5166 97.1567C11.5166 97.1567 11.5166 96.2258 12.4475 96.2258H17.1019C17.1019 96.2258 18.0327 96.2258 18.0327 97.1567V108.327C18.0327 108.327 18.0327 109.258 18.9636 109.258H23.618C23.618 109.258 24.5489 109.258 24.5489 108.327V103.673C24.5489 103.673 24.5489 102.742 25.4797 102.742H36.6502C36.6502 102.742 37.5811 102.742 37.5811 103.673V108.327C37.5811 108.327 37.5811 109.258 36.6502 109.258H31.9959C31.9959 109.258 31.065 109.258 31.065 110.189V114.843C31.065 114.843 31.065 115.774 31.9959 115.774H36.6502C36.6502 115.774 37.5811 115.774 37.5811 116.705V121.359C37.5811 121.359 37.5811 122.29 36.6502 122.29H31.9959C31.9959 122.29 31.065 122.29 31.065 123.221V134.392C31.065 134.392 31.065 135.323 31.9959 135.323H36.6502C36.6502 135.323 37.5811 135.323 37.5811 136.253V140.908C37.5811 140.908 37.5811 141.839 36.6502 141.839H31.9959C31.9959 141.839 31.065 141.839 31.065 142.77V147.424C31.065 147.424 31.065 148.355 30.1341 148.355H18.9636C18.9636 148.355 18.0327 148.355 18.0327 147.424V142.77C18.0327 142.77 18.0327 141.839 18.9636 141.839H23.618C23.618 141.839 24.5489 141.839 24.5489 140.908V129.737C24.5489 129.737 24.5489 128.806 23.618 128.806H18.9636C18.9636 128.806 18.0327 128.806 18.0327 127.876V123.221C18.0327 123.221 18.0327 122.29 18.9636 122.29H23.618C23.618 122.29 24.5489 122.29 24.5489 121.359V116.705C24.5489 116.705 24.5489 115.774 23.618 115.774H18.9636C18.9636 115.774 18.0327 115.774 18.0327 116.705V121.359C18.0327 121.359 18.0327 122.29 17.1019 122.29H12.4475C12.4475 122.29 11.5166 122.29 11.5166 121.359V97.1567Z" fill="#000A0D"/>
<path d="M11.5166 129.737C11.5166 129.737 11.5166 128.806 12.4475 128.806H17.1019C17.1019 128.806 18.0327 128.806 18.0327 129.737V134.392C18.0327 134.392 18.0327 135.323 17.1019 135.323H12.4475C12.4475 135.323 11.5166 135.323 11.5166 134.392V129.737Z" fill="black"/>
<path d="M11.5166 155.802C11.5166 155.802 11.5166 154.871 12.4475 154.871H56.1986C56.1986 154.871 57.1295 154.871 57.1295 155.802V199.553C57.1295 199.553 57.1295 200.484 56.1986 200.484H12.4475C12.4475 200.484 11.5166 200.484 11.5166 199.553V155.802ZM18.9636 161.387C18.9636 161.387 18.0327 161.387 18.0327 162.318V193.037C18.0327 193.037 18.0327 193.968 18.9636 193.968H49.6825C49.6825 193.968 50.6134 193.968 50.6134 193.037V162.318C50.6134 162.318 50.6134 161.387 49.6825 161.387H18.9636Z" fill="black"/>
<path d="M24.5484 64.576C24.5484 64.576 24.5484 63.6452 25.4792 63.6452H36.6497C36.6497 63.6452 37.5806 63.6452 37.5806 64.576V69.2304C37.5806 69.2304 37.5806 70.1613 38.5115 70.1613H43.1659C43.1659 70.1613 44.0967 70.1613 44.0967 69.2304V64.576C44.0967 64.576 44.0967 63.6452 45.0276 63.6452H62.7143C62.7143 63.6452 63.6451 63.6452 63.6451 64.576V69.2304C63.6451 69.2304 63.6451 70.1613 62.7143 70.1613H51.5437C51.5437 70.1613 50.6129 70.1613 50.6129 71.0922V75.7465C50.6129 75.7465 50.6129 76.6774 51.5437 76.6774H62.7143C62.7143 76.6774 63.6451 76.6774 63.6451 77.6083V82.2627C63.6451 82.2627 63.6451 83.1935 62.7143 83.1935H51.5437C51.5437 83.1935 50.6129 83.1935 50.6129 84.1244V88.7788C50.6129 88.7788 50.6129 89.7097 49.682 89.7097H45.0276C45.0276 89.7097 44.0967 89.7097 44.0967 88.7788V77.6083C44.0967 77.6083 44.0967 76.6774 43.1659 76.6774H31.9954C31.9954 76.6774 31.0645 76.6774 31.0645 77.6083V82.2627C31.0645 82.2627 31.0645 83.1935 30.1336 83.1935H25.4792C25.4792 83.1935 24.5484 83.1935 24.5484 82.2627V77.6083C24.5484 77.6083 24.5484 76.6774 23.6175 76.6774H18.9631C18.9631 76.6774 18.0322 76.6774 18.0322 75.7465V71.0922C18.0322 71.0922 18.0322 70.1613 18.9631 70.1613H23.6175C23.6175 70.1613 24.5484 70.1613 24.5484 69.2304V64.576Z" fill="#000A0D"/>
<path d="M18.0322 84.1244C18.0322 84.1244 18.0322 83.1935 18.9631 83.1935H23.6175C23.6175 83.1935 24.5484 83.1935 24.5484 84.1244V88.7788C24.5484 88.7788 24.5484 89.7097 23.6175 89.7097H18.9631C18.9631 89.7097 18.0322 89.7097 18.0322 88.7788V84.1244Z" fill="black"/>
<path d="M24.5488 25.4793C24.5488 25.4793 24.5488 24.5484 25.4797 24.5484H43.1663C43.1663 24.5484 44.0972 24.5484 44.0972 25.4793V43.1659C44.0972 43.1659 44.0972 44.0968 43.1663 44.0968H25.4797C25.4797 44.0968 24.5488 44.0968 24.5488 43.1659V25.4793Z" fill="black"/>
<path d="M31.065 84.1244C31.065 84.1244 31.065 83.1935 31.9958 83.1935H36.6502C36.6502 83.1935 37.5811 83.1935 37.5811 84.1244V95.2949C37.5811 95.2949 37.5811 96.2258 36.6502 96.2258H25.4797C25.4797 96.2258 24.5488 96.2258 24.5488 95.2949V90.6406C24.5488 90.6406 24.5488 89.7097 25.4797 89.7097H30.1341C30.1341 89.7097 31.065 89.7097 31.065 88.7788V84.1244Z" fill="#000A0D"/>
<path d="M24.5488 168.834C24.5488 168.834 24.5488 167.903 25.4797 167.903H43.1663C43.1663 167.903 44.0972 167.903 44.0972 168.834V186.521C44.0972 186.521 44.0972 187.452 43.1663 187.452H25.4797C25.4797 187.452 24.5488 187.452 24.5488 186.521V168.834Z" fill="black"/>
<path d="M37.5811 142.77C37.5811 142.77 37.5811 141.839 38.5119 141.839H43.1663C43.1663 141.839 44.0972 141.839 44.0972 142.77V147.424C44.0972 147.424 44.0972 148.355 43.1663 148.355H38.5119C38.5119 148.355 37.5811 148.355 37.5811 147.424V142.77Z" fill="black"/>
<path d="M44.0967 116.705C44.0967 116.705 44.0967 115.774 45.0276 115.774H56.1981C56.1981 115.774 57.1289 115.774 57.1289 116.705V121.359C57.1289 121.359 57.1289 122.29 56.1981 122.29H51.5437C51.5437 122.29 50.6128 122.29 50.6128 123.221V127.876C50.6128 127.876 50.6128 128.806 49.6819 128.806H45.0276C45.0276 128.806 44.0967 128.806 44.0967 127.876V116.705Z" fill="#000A0D"/>
<path d="M50.6133 90.6406C50.6133 90.6406 50.6133 89.7097 51.5442 89.7097H56.1985C56.1985 89.7097 57.1294 89.7097 57.1294 90.6406V95.2949C57.1294 95.2949 57.1294 96.2258 56.1985 96.2258H51.5442C51.5442 96.2258 50.6133 96.2258 50.6133 95.2949V90.6406Z" fill="black"/>
<path d="M50.6133 103.673C50.6133 103.673 50.6133 102.742 51.5442 102.742H62.7147C62.7147 102.742 63.6455 102.742 63.6455 103.673V108.327C63.6455 108.327 63.6455 109.258 62.7147 109.258H51.5442C51.5442 109.258 50.6133 109.258 50.6133 108.327V103.673Z" fill="#000A0D"/>
<path d="M63.6455 123.221C63.6455 123.221 63.6455 122.29 64.5764 122.29H75.7469C75.7469 122.29 76.6778 122.29 76.6778 123.221V127.876C76.6778 127.876 76.6778 128.806 77.6087 128.806H82.263C82.263 128.806 83.1939 128.806 83.1939 129.737V147.424C83.1939 147.424 83.1939 148.355 82.263 148.355H77.6087C77.6087 148.355 76.6778 148.355 76.6778 149.286V153.94C76.6778 153.94 76.6778 154.871 77.6087 154.871H88.7792C88.7792 154.871 89.7101 154.871 89.7101 155.802V166.972C89.7101 166.972 89.7101 167.903 90.6409 167.903H95.2953C95.2953 167.903 96.2262 167.903 96.2262 168.834V173.488C96.2262 173.488 96.2262 174.419 97.1571 174.419H101.811C101.811 174.419 102.742 174.419 102.742 175.35V180.005C102.742 180.005 102.742 180.935 101.811 180.935H71.0925C71.0925 180.935 70.1617 180.935 70.1617 181.866V186.521C70.1617 186.521 70.1617 187.452 69.2308 187.452H64.5764C64.5764 187.452 63.6455 187.452 63.6455 186.521V175.35C63.6455 175.35 63.6455 174.419 64.5764 174.419H69.2308C69.2308 174.419 70.1617 174.419 70.1617 173.488V168.834C70.1617 168.834 70.1617 167.903 69.2308 167.903H64.5764C64.5764 167.903 63.6455 167.903 63.6455 166.972V136.253C63.6455 136.253 63.6455 135.323 62.7147 135.323H51.5442C51.5442 135.323 50.6133 135.323 50.6133 134.392V129.737C50.6133 129.737 50.6133 128.806 51.5442 128.806H62.7147C62.7147 128.806 63.6455 128.806 63.6455 127.876V123.221ZM77.6087 167.903C77.6087 167.903 76.6778 167.903 76.6778 168.834V173.488C76.6778 173.488 76.6778 174.419 77.6087 174.419H82.263C82.263 174.419 83.1939 174.419 83.1939 173.488V168.834C83.1939 168.834 83.1939 167.903 82.263 167.903H77.6087Z" fill="#000A0D"/>
<path d="M50.6133 142.77C50.6133 142.77 50.6133 141.839 51.5442 141.839H56.1985C56.1985 141.839 57.1294 141.839 57.1294 142.77V147.424C57.1294 147.424 57.1294 148.355 56.1985 148.355H51.5442C51.5442 148.355 50.6133 148.355 50.6133 147.424V142.77Z" fill="black"/>
<path d="M63.6455 12.447C63.6455 12.447 63.6455 11.5161 64.5764 11.5161H88.7791C88.7791 11.5161 89.71 11.5161 89.71 12.447V17.1014C89.71 17.1014 89.71 18.0323 88.7791 18.0323H77.6086C77.6086 18.0323 76.6778 18.0323 76.6778 18.9631V23.6175C76.6778 23.6175 76.6778 24.5484 75.7469 24.5484H64.5764C64.5764 24.5484 63.6455 24.5484 63.6455 23.6175V12.447Z" fill="#000A0D"/>
<path d="M63.6455 31.9954C63.6455 31.9954 63.6455 31.0645 64.5764 31.0645H75.7469C75.7469 31.0645 76.6778 31.0645 76.6778 31.9954V36.6498C76.6778 36.6498 76.6778 37.5806 77.6086 37.5806H88.7791C88.7791 37.5806 89.71 37.5806 89.71 36.6498V31.9954C89.71 31.9954 89.71 31.0645 90.6409 31.0645H95.2953C95.2953 31.0645 96.2262 31.0645 96.2262 31.9954V43.1659C96.2262 43.1659 96.2262 44.0968 97.157 44.0968H101.811C101.811 44.0968 102.742 44.0968 102.742 45.0276V49.682C102.742 49.682 102.742 50.6129 101.811 50.6129H97.157C97.157 50.6129 96.2262 50.6129 96.2262 51.5438V56.1982C96.2262 56.1982 96.2262 57.129 95.2953 57.129H90.6409C90.6409 57.129 89.71 57.129 89.71 56.1982V45.0276C89.71 45.0276 89.71 44.0968 88.7791 44.0968H71.0925C71.0925 44.0968 70.1616 44.0968 70.1616 43.1659V38.5115C70.1616 38.5115 70.1616 37.5806 69.2308 37.5806H64.5764C64.5764 37.5806 63.6455 37.5806 63.6455 36.6498V31.9954Z" fill="#000A0D"/>
<path d="M63.6455 51.5438C63.6455 51.5438 63.6455 50.6129 64.5764 50.6129H69.2308C69.2308 50.6129 70.1616 50.6129 70.1616 51.5438V56.1982C70.1616 56.1982 70.1616 57.129 71.0925 57.129H75.7469C75.7469 57.129 76.6778 57.129 76.6778 56.1982V51.5438C76.6778 51.5438 76.6778 50.6129 77.6086 50.6129H82.263C82.263 50.6129 83.1939 50.6129 83.1939 51.5438V56.1982C83.1939 56.1982 83.1939 57.129 84.1248 57.129H88.7791C88.7791 57.129 89.71 57.129 89.71 58.0599V62.7143C89.71 62.7143 89.71 63.6452 88.7791 63.6452H84.1248C84.1248 63.6452 83.1939 63.6452 83.1939 64.576V75.7465C83.1939 75.7465 83.1939 76.6774 84.1248 76.6774H88.7791C88.7791 76.6774 89.71 76.6774 89.71 77.6083V82.2627C89.71 82.2627 89.71 83.1935 88.7791 83.1935H71.0925C71.0925 83.1935 70.1616 83.1935 70.1616 82.2627V77.6083C70.1616 77.6083 70.1616 76.6774 71.0925 76.6774H75.7469C75.7469 76.6774 76.6778 76.6774 76.6778 75.7465V64.576C76.6778 64.576 76.6778 63.6452 75.7469 63.6452H64.5764C64.5764 63.6452 63.6455 63.6452 63.6455 62.7143V51.5438Z" fill="#000A0D"/>
<path d="M63.6455 71.0922C63.6455 71.0922 63.6455 70.1613 64.5764 70.1613H69.2308C69.2308 70.1613 70.1616 70.1613 70.1616 71.0922V75.7465C70.1616 75.7465 70.1616 76.6774 69.2308 76.6774H64.5764C64.5764 76.6774 63.6455 76.6774 63.6455 75.7465V71.0922Z" fill="black"/>
<path d="M70.1616 90.6406C70.1616 90.6406 70.1616 89.7097 71.0925 89.7097H82.263C82.263 89.7097 83.1939 89.7097 83.1939 90.6406V108.327C83.1939 108.327 83.1939 109.258 82.263 109.258H71.0925C71.0925 109.258 70.1616 109.258 70.1616 108.327V103.673C70.1616 103.673 70.1616 102.742 69.2308 102.742H64.5764C64.5764 102.742 63.6455 102.742 63.6455 101.811V97.1567C63.6455 97.1567 63.6455 96.2258 64.5764 96.2258H69.2308C69.2308 96.2258 70.1616 96.2258 70.1616 95.2949V90.6406Z" fill="#000A0D"/>
<path d="M63.6455 110.189C63.6455 110.189 63.6455 109.258 64.5764 109.258H69.2308C69.2308 109.258 70.1616 109.258 70.1616 110.189V114.843C70.1616 114.843 70.1616 115.774 69.2308 115.774H64.5764C64.5764 115.774 63.6455 115.774 63.6455 114.843V110.189Z" fill="black"/>
<path d="M63.6455 194.899C63.6455 194.899 63.6455 193.968 64.5764 193.968H69.2308C69.2308 193.968 70.1616 193.968 70.1616 194.899V199.553C70.1616 199.553 70.1616 200.484 69.2308 200.484H64.5764C64.5764 200.484 63.6455 200.484 63.6455 199.553V194.899Z" fill="black"/>
<path d="M70.1611 188.382C70.1611 188.382 70.1611 187.452 71.092 187.452H75.7464C75.7464 187.452 76.6773 187.452 76.6773 188.382V193.037C76.6773 193.037 76.6773 193.968 75.7464 193.968H71.092C71.092 193.968 70.1611 193.968 70.1611 193.037V188.382Z" fill="black"/>
<path d="M83.1934 25.4793C83.1934 25.4793 83.1934 24.5484 84.1242 24.5484H88.7786C88.7786 24.5484 89.7095 24.5484 89.7095 25.4793V30.1336C89.7095 30.1336 89.7095 31.0645 88.7786 31.0645H84.1242C84.1242 31.0645 83.1934 31.0645 83.1934 30.1336V25.4793Z" fill="black"/>
<path d="M83.1934 110.189C83.1934 110.189 83.1934 109.258 84.1242 109.258H95.2947C95.2947 109.258 96.2256 109.258 96.2256 110.189V121.359C96.2256 121.359 96.2256 122.29 95.2947 122.29H90.6404C90.6404 122.29 89.7095 122.29 89.7095 123.221V127.876C89.7095 127.876 89.7095 128.806 88.7786 128.806H84.1242C84.1242 128.806 83.1934 128.806 83.1934 127.876V110.189Z" fill="#000A0D"/>
<path d="M83.1934 188.382C83.1934 188.382 83.1934 187.452 84.1242 187.452H88.7786C88.7786 187.452 89.7095 187.452 89.7095 188.382V193.037C89.7095 193.037 89.7095 193.968 90.6404 193.968H95.2947C95.2947 193.968 96.2256 193.968 96.2256 193.037V188.382C96.2256 188.382 96.2256 187.452 97.1565 187.452H108.327C108.327 187.452 109.258 187.452 109.258 188.382V193.037C109.258 193.037 109.258 193.968 108.327 193.968H103.673C103.673 193.968 102.742 193.968 102.742 194.899V199.553C102.742 199.553 102.742 200.484 101.811 200.484H84.1242C84.1242 200.484 83.1934 200.484 83.1934 199.553V188.382Z" fill="#000A0D"/>
<path d="M96.2261 12.447C96.2261 12.447 96.2261 11.5161 97.157 11.5161H114.844C114.844 11.5161 115.774 11.5161 115.774 12.447V17.1014C115.774 17.1014 115.774 18.0323 114.844 18.0323H103.673C103.673 18.0323 102.742 18.0323 102.742 18.9631V23.6175C102.742 23.6175 102.742 24.5484 101.811 24.5484H90.6408C90.6408 24.5484 89.71 24.5484 89.71 23.6175V18.9631C89.71 18.9631 89.71 18.0323 90.6408 18.0323H95.2952C95.2952 18.0323 96.2261 18.0323 96.2261 17.1014V12.447Z" fill="#000A0D"/>
<path d="M122.291 31.9954C122.291 31.9954 122.291 31.0645 123.221 31.0645H127.876C127.876 31.0645 128.807 31.0645 128.807 31.9954V49.682C128.807 49.682 128.807 50.6129 127.876 50.6129H123.221C123.221 50.6129 122.291 50.6129 122.291 51.5438V56.1982C122.291 56.1982 122.291 57.129 123.221 57.129H127.876C127.876 57.129 128.807 57.129 128.807 58.0599V62.7143C128.807 62.7143 128.807 63.6452 129.738 63.6452H134.392C134.392 63.6452 135.323 63.6452 135.323 62.7143V58.0599C135.323 58.0599 135.323 57.129 136.254 57.129H140.908C140.908 57.129 141.839 57.129 141.839 56.1982V51.5438C141.839 51.5438 141.839 50.6129 140.908 50.6129H136.254C136.254 50.6129 135.323 50.6129 135.323 49.682V38.5115C135.323 38.5115 135.323 37.5806 136.254 37.5806H140.908C140.908 37.5806 141.839 37.5806 141.839 38.5115V43.1659C141.839 43.1659 141.839 44.0968 142.77 44.0968H147.424C147.424 44.0968 148.355 44.0968 148.355 45.0276V69.2304C148.355 69.2304 148.355 70.1613 149.286 70.1613H153.94C153.94 70.1613 154.871 70.1613 154.871 69.2304V64.576C154.871 64.576 154.871 63.6452 155.802 63.6452H160.457C160.457 63.6452 161.387 63.6452 161.387 64.576V75.7465C161.387 75.7465 161.387 76.6774 162.318 76.6774H166.973C166.973 76.6774 167.904 76.6774 167.904 75.7465V71.0922C167.904 71.0922 167.904 70.1613 168.834 70.1613H173.489C173.489 70.1613 174.42 70.1613 174.42 71.0922V82.2627C174.42 82.2627 174.42 83.1935 173.489 83.1935H149.286C149.286 83.1935 148.355 83.1935 148.355 82.2627V77.6083C148.355 77.6083 148.355 76.6774 147.424 76.6774H136.254C136.254 76.6774 135.323 76.6774 135.323 75.7465V71.0922C135.323 71.0922 135.323 70.1613 134.392 70.1613H123.221C123.221 70.1613 122.291 70.1613 122.291 69.2304V64.576C122.291 64.576 122.291 63.6452 121.36 63.6452H116.705C116.705 63.6452 115.774 63.6452 115.774 64.576V75.7465C115.774 75.7465 115.774 76.6774 114.844 76.6774H103.673C103.673 76.6774 102.742 76.6774 102.742 77.6083V82.2627C102.742 82.2627 102.742 83.1935 101.811 83.1935H97.157C97.157 83.1935 96.2261 83.1935 96.2261 82.2627V71.0922C96.2261 71.0922 96.2261 70.1613 95.2952 70.1613H90.6408C90.6408 70.1613 89.71 70.1613 89.71 69.2304V64.576C89.71 64.576 89.71 63.6452 90.6408 63.6452H101.811C101.811 63.6452 102.742 63.6452 102.742 64.576V69.2304C102.742 69.2304 102.742 70.1613 103.673 70.1613H108.327C108.327 70.1613 109.258 70.1613 109.258 69.2304V58.0599C109.258 58.0599 109.258 57.129 110.189 57.129H114.844C114.844 57.129 115.774 57.129 115.774 56.1982V51.5438C115.774 51.5438 115.774 50.6129 114.844 50.6129H110.189C110.189 50.6129 109.258 50.6129 109.258 49.682V45.0276C109.258 45.0276 109.258 44.0968 110.189 44.0968H114.844C114.844 44.0968 115.774 44.0968 115.774 43.1659V38.5115C115.774 38.5115 115.774 37.5806 116.705 37.5806H121.36C121.36 37.5806 122.291 37.5806 122.291 36.6498V31.9954Z" fill="#000A0D"/>
<path d="M89.71 97.1567C89.71 97.1567 89.71 96.2258 90.6408 96.2258H95.2952C95.2952 96.2258 96.2261 96.2258 96.2261 97.1567V101.811C96.2261 101.811 96.2261 102.742 95.2952 102.742H90.6408C90.6408 102.742 89.71 102.742 89.71 101.811V97.1567Z" fill="black"/>
<path d="M122.291 90.6406C122.291 90.6406 122.291 89.7097 123.221 89.7097H127.876C127.876 89.7097 128.807 89.7097 128.807 90.6406V95.2949C128.807 95.2949 128.807 96.2258 129.738 96.2258H140.908C140.908 96.2258 141.839 96.2258 141.839 97.1567V108.327C141.839 108.327 141.839 109.258 142.77 109.258H153.94C153.94 109.258 154.871 109.258 154.871 108.327V103.673C154.871 103.673 154.871 102.742 153.94 102.742H149.286C149.286 102.742 148.355 102.742 148.355 101.811V97.1567C148.355 97.1567 148.355 96.2258 149.286 96.2258H160.457C160.457 96.2258 161.387 96.2258 161.387 97.1567V101.811C161.387 101.811 161.387 102.742 162.318 102.742H186.521C186.521 102.742 187.452 102.742 187.452 101.811V97.1567C187.452 97.1567 187.452 96.2258 188.383 96.2258H199.553C199.553 96.2258 200.484 96.2258 200.484 97.1567V108.327C200.484 108.327 200.484 109.258 199.553 109.258H194.899C194.899 109.258 193.968 109.258 193.968 110.189V127.876C193.968 127.876 193.968 128.806 193.037 128.806H188.383C188.383 128.806 187.452 128.806 187.452 129.737V147.424C187.452 147.424 187.452 148.355 188.383 148.355H199.553C199.553 148.355 200.484 148.355 200.484 149.286V153.94C200.484 153.94 200.484 154.871 199.553 154.871H194.899C194.899 154.871 193.968 154.871 193.968 155.802V160.456C193.968 160.456 193.968 161.387 193.037 161.387H188.383C188.383 161.387 187.452 161.387 187.452 160.456V155.802C187.452 155.802 187.452 154.871 186.521 154.871H181.867C181.867 154.871 180.936 154.871 180.936 155.802V160.456C180.936 160.456 180.936 161.387 180.005 161.387H175.351C175.351 161.387 174.42 161.387 174.42 162.318V180.005C174.42 180.005 174.42 180.935 173.489 180.935H168.834C168.834 180.935 167.904 180.935 167.904 181.866V186.521C167.904 186.521 167.904 187.452 166.973 187.452H162.318C162.318 187.452 161.387 187.452 161.387 186.521V175.35C161.387 175.35 161.387 174.419 160.457 174.419H149.286C149.286 174.419 148.355 174.419 148.355 175.35V193.037C148.355 193.037 148.355 193.968 149.286 193.968H153.94C153.94 193.968 154.871 193.968 154.871 193.037V188.382C154.871 188.382 154.871 187.452 155.802 187.452H160.457C160.457 187.452 161.387 187.452 161.387 188.382V199.553C161.387 199.553 161.387 200.484 160.457 200.484H129.738C129.738 200.484 128.807 200.484 128.807 199.553V194.899C128.807 194.899 128.807 193.968 129.738 193.968H140.908C140.908 193.968 141.839 193.968 141.839 193.037V188.382C141.839 188.382 141.839 187.452 140.908 187.452H129.738C129.738 187.452 128.807 187.452 128.807 186.521V181.866C128.807 181.866 128.807 180.935 129.738 180.935H134.392C134.392 180.935 135.323 180.935 135.323 180.005V175.35C135.323 175.35 135.323 174.419 136.254 174.419H140.908C140.908 174.419 141.839 174.419 141.839 173.488V162.318C141.839 162.318 141.839 161.387 140.908 161.387H129.738C129.738 161.387 128.807 161.387 128.807 160.456V155.802C128.807 155.802 128.807 154.871 127.876 154.871H123.221C123.221 154.871 122.291 154.871 122.291 153.94V149.286C122.291 149.286 122.291 148.355 121.36 148.355H90.6408C90.6408 148.355 89.71 148.355 89.71 147.424V136.253C89.71 136.253 89.71 135.323 90.6408 135.323H95.2952C95.2952 135.323 96.2261 135.323 96.2261 134.392V129.737C96.2261 129.737 96.2261 128.806 97.157 128.806H101.811C101.811 128.806 102.742 128.806 102.742 127.876V110.189C102.742 110.189 102.742 109.258 103.673 109.258H108.327C108.327 109.258 109.258 109.258 109.258 110.189V114.843C109.258 114.843 109.258 115.774 110.189 115.774H114.844C114.844 115.774 115.774 115.774 115.774 116.705V121.359C115.774 121.359 115.774 122.29 114.844 122.29H110.189C110.189 122.29 109.258 122.29 109.258 123.221V127.876C109.258 127.876 109.258 128.806 110.189 128.806H114.844C114.844 128.806 115.774 128.806 115.774 127.876V123.221C115.774 123.221 115.774 122.29 116.705 122.29H127.876C127.876 122.29 128.807 122.29 128.807 123.221V127.876C128.807 127.876 128.807 128.806 127.876 128.806H123.221C123.221 128.806 122.291 128.806 122.291 129.737V134.392C122.291 134.392 122.291 135.323 123.221 135.323H127.876C127.876 135.323 128.807 135.323 128.807 134.392V129.737C128.807 129.737 128.807 128.806 129.738 128.806H134.392C134.392 128.806 135.323 128.806 135.323 129.737V134.392C135.323 134.392 135.323 135.323 136.254 135.323H140.908C140.908 135.323 141.839 135.323 141.839 136.253V140.908C141.839 140.908 141.839 141.839 140.908 141.839H136.254C136.254 141.839 135.323 141.839 135.323 142.77V153.94C135.323 153.94 135.323 154.871 136.254 154.871H140.908C140.908 154.871 141.839 154.871 141.839 153.94V142.77C141.839 142.77 141.839 141.839 142.77 141.839H147.424C147.424 141.839 148.355 141.839 148.355 140.908V136.253C148.355 136.253 148.355 135.323 149.286 135.323H153.94C153.94 135.323 154.871 135.323 154.871 136.253V140.908C154.871 140.908 154.871 141.839 155.802 141.839H166.973C166.973 141.839 167.904 141.839 167.904 140.908V136.253C167.904 136.253 167.904 135.323 166.973 135.323H162.318C162.318 135.323 161.387 135.323 161.387 134.392V123.221C161.387 123.221 161.387 122.29 162.318 122.29H166.973C166.973 122.29 167.904 122.29 167.904 123.221V127.876C167.904 127.876 167.904 128.806 168.834 128.806H180.005C180.005 128.806 180.936 128.806 180.936 127.876V123.221C180.936 123.221 180.936 122.29 181.867 122.29H186.521C186.521 122.29 187.452 122.29 187.452 121.359V110.189C187.452 110.189 187.452 109.258 186.521 109.258H175.351C175.351 109.258 174.42 109.258 174.42 110.189V121.359C174.42 121.359 174.42 122.29 173.489 122.29H168.834C168.834 122.29 167.904 122.29 167.904 121.359V110.189C167.904 110.189 167.904 109.258 166.973 109.258H162.318C162.318 109.258 161.387 109.258 161.387 110.189V114.843C161.387 114.843 161.387 115.774 160.457 115.774H155.802C155.802 115.774 154.871 115.774 154.871 116.705V127.876C154.871 127.876 154.871 128.806 153.94 128.806H142.77C142.77 128.806 141.839 128.806 141.839 127.876V123.221C141.839 123.221 141.839 122.29 142.77 122.29H147.424C147.424 122.29 148.355 122.29 148.355 121.359V116.705C148.355 116.705 148.355 115.774 147.424 115.774H136.254C136.254 115.774 135.323 115.774 135.323 114.843V103.673C135.323 103.673 135.323 102.742 134.392 102.742H129.738C129.738 102.742 128.807 102.742 128.807 103.673V108.327C128.807 108.327 128.807 109.258 127.876 109.258H123.221C123.221 109.258 122.291 109.258 122.291 110.189V114.843C122.291 114.843 122.291 115.774 121.36 115.774H116.705C116.705 115.774 115.774 115.774 115.774 114.843V110.189C115.774 110.189 115.774 109.258 114.844 109.258H110.189C110.189 109.258 109.258 109.258 109.258 108.327V103.673C109.258 103.673 109.258 102.742 110.189 102.742H114.844C114.844 102.742 115.774 102.742 115.774 101.811V97.1567C115.774 97.1567 115.774 96.2258 116.705 96.2258H121.36C121.36 96.2258 122.291 96.2258 122.291 95.2949V90.6406ZM175.351 135.323C175.351 135.323 174.42 135.323 174.42 136.253V140.908C174.42 140.908 174.42 141.839 175.351 141.839H180.005C180.005 141.839 180.936 141.839 180.936 140.908V136.253C180.936 136.253 180.936 135.323 180.005 135.323H175.351ZM149.286 148.355C149.286 148.355 148.355 148.355 148.355 149.286V166.972C148.355 166.972 148.355 167.903 149.286 167.903H166.973C166.973 167.903 167.904 167.903 167.904 166.972V149.286C167.904 149.286 167.904 148.355 166.973 148.355H149.286Z" fill="#000A0D"/>
<path d="M96.2256 103.673C96.2256 103.673 96.2256 102.742 97.1565 102.742H101.811C101.811 102.742 102.742 102.742 102.742 103.673V108.327C102.742 108.327 102.742 109.258 101.811 109.258H97.1565C97.1565 109.258 96.2256 109.258 96.2256 108.327V103.673Z" fill="black"/>
<path d="M102.742 155.802C102.742 155.802 102.742 154.871 103.673 154.871H108.327C108.327 154.871 109.258 154.871 109.258 155.802V160.456C109.258 160.456 109.258 161.387 110.189 161.387H114.843C114.843 161.387 115.774 161.387 115.774 160.456V155.802C115.774 155.802 115.774 154.871 116.705 154.871H121.359C121.359 154.871 122.29 154.871 122.29 155.802V166.972C122.29 166.972 122.29 167.903 123.221 167.903H127.875C127.875 167.903 128.806 167.903 128.806 168.834V180.005C128.806 180.005 128.806 180.935 127.875 180.935H110.189C110.189 180.935 109.258 180.935 109.258 180.005V168.834C109.258 168.834 109.258 167.903 108.327 167.903H97.1565C97.1565 167.903 96.2256 167.903 96.2256 166.972V162.318C96.2256 162.318 96.2256 161.387 97.1565 161.387H101.811C101.811 161.387 102.742 161.387 102.742 160.456V155.802Z" fill="#000A0D"/>
<path d="M102.742 31.9954C102.742 31.9954 102.742 31.0645 103.673 31.0645H114.844C114.844 31.0645 115.774 31.0645 115.774 31.9954V36.6498C115.774 36.6498 115.774 37.5806 114.844 37.5806H110.189C110.189 37.5806 109.258 37.5806 109.258 38.5115V43.1659C109.258 43.1659 109.258 44.0968 108.327 44.0968H103.673C103.673 44.0968 102.742 44.0968 102.742 43.1659V31.9954Z" fill="#000A0D"/>
<path d="M102.742 51.5438C102.742 51.5438 102.742 50.6129 103.673 50.6129H108.327C108.327 50.6129 109.258 50.6129 109.258 51.5438V56.1982C109.258 56.1982 109.258 57.129 108.327 57.129H103.673C103.673 57.129 102.742 57.129 102.742 56.1982V51.5438Z" fill="black"/>
<path d="M102.742 90.6406C102.742 90.6406 102.742 89.7097 103.673 89.7097H114.844C114.844 89.7097 115.774 89.7097 115.774 90.6406V95.2949C115.774 95.2949 115.774 96.2258 114.844 96.2258H110.189C110.189 96.2258 109.258 96.2258 109.258 97.1567V101.811C109.258 101.811 109.258 102.742 108.327 102.742H103.673C103.673 102.742 102.742 102.742 102.742 101.811V90.6406Z" fill="#000A0D"/>
<path d="M115.774 18.9631C115.774 18.9631 115.774 18.0323 116.705 18.0323H121.36C121.36 18.0323 122.291 18.0323 122.291 18.9631V30.1336C122.291 30.1336 122.291 31.0645 121.36 31.0645H116.705C116.705 31.0645 115.774 31.0645 115.774 30.1336V18.9631Z" fill="#000A0D"/>
<path d="M115.774 77.6083C115.774 77.6083 115.774 76.6774 116.705 76.6774H134.392C134.392 76.6774 135.323 76.6774 135.323 77.6083V82.2627C135.323 82.2627 135.323 83.1935 136.254 83.1935H147.424C147.424 83.1935 148.355 83.1935 148.355 84.1244V88.7788C148.355 88.7788 148.355 89.7097 147.424 89.7097H129.738C129.738 89.7097 128.807 89.7097 128.807 88.7788V84.1244C128.807 84.1244 128.807 83.1935 127.876 83.1935H123.221C123.221 83.1935 122.291 83.1935 122.291 84.1244V88.7788C122.291 88.7788 122.291 89.7097 121.36 89.7097H116.705C116.705 89.7097 115.774 89.7097 115.774 88.7788V77.6083Z" fill="#000A0D"/>
<path d="M115.774 194.899C115.774 194.899 115.774 193.968 116.705 193.968H121.36C121.36 193.968 122.291 193.968 122.291 194.899V199.553C122.291 199.553 122.291 200.484 121.36 200.484H116.705C116.705 200.484 115.774 200.484 115.774 199.553V194.899Z" fill="black"/>
<path d="M122.29 12.447C122.29 12.447 122.29 11.5161 123.221 11.5161H140.908C140.908 11.5161 141.838 11.5161 141.838 12.447V17.1014C141.838 17.1014 141.838 18.0323 140.908 18.0323H136.253C136.253 18.0323 135.322 18.0323 135.322 18.9631V23.6175C135.322 23.6175 135.322 24.5484 136.253 24.5484H140.908C140.908 24.5484 141.838 24.5484 141.838 23.6175V18.9631C141.838 18.9631 141.838 18.0323 142.769 18.0323H147.424C147.424 18.0323 148.355 18.0323 148.355 18.9631V36.6498C148.355 36.6498 148.355 37.5806 147.424 37.5806H142.769C142.769 37.5806 141.838 37.5806 141.838 36.6498V31.9954C141.838 31.9954 141.838 31.0645 140.908 31.0645H129.737C129.737 31.0645 128.806 31.0645 128.806 30.1336V18.9631C128.806 18.9631 128.806 18.0323 127.875 18.0323H123.221C123.221 18.0323 122.29 18.0323 122.29 17.1014V12.447Z" fill="#000A0D"/>
<path d="M128.807 51.5438C128.807 51.5438 128.807 50.6129 129.738 50.6129H134.392C134.392 50.6129 135.323 50.6129 135.323 51.5438V56.1982C135.323 56.1982 135.323 57.129 134.392 57.129H129.738C129.738 57.129 128.807 57.129 128.807 56.1982V51.5438Z" fill="black"/>
<path d="M128.807 116.705C128.807 116.705 128.807 115.774 129.738 115.774H134.392C134.392 115.774 135.323 115.774 135.323 116.705V121.359C135.323 121.359 135.323 122.29 134.392 122.29H129.738C129.738 122.29 128.807 122.29 128.807 121.359V116.705Z" fill="black"/>
<path d="M154.871 12.447C154.871 12.447 154.871 11.5161 155.802 11.5161H199.553C199.553 11.5161 200.484 11.5161 200.484 12.447V56.1982C200.484 56.1982 200.484 57.129 199.553 57.129H155.802C155.802 57.129 154.871 57.129 154.871 56.1982V12.447ZM162.318 18.0323C162.318 18.0323 161.387 18.0323 161.387 18.9631V49.682C161.387 49.682 161.387 50.6129 162.318 50.6129H193.037C193.037 50.6129 193.968 50.6129 193.968 49.682V18.9631C193.968 18.9631 193.968 18.0323 193.037 18.0323H162.318Z" fill="black"/>
<path d="M154.871 155.802C154.871 155.802 154.871 154.871 155.802 154.871H160.456C160.456 154.871 161.387 154.871 161.387 155.802V160.456C161.387 160.456 161.387 161.387 160.456 161.387H155.802C155.802 161.387 154.871 161.387 154.871 160.456V155.802Z" fill="black"/>
<path d="M161.387 90.6406C161.387 90.6406 161.387 89.7097 162.318 89.7097H166.972C166.972 89.7097 167.903 89.7097 167.903 90.6406V95.2949C167.903 95.2949 167.903 96.2258 166.972 96.2258H162.318C162.318 96.2258 161.387 96.2258 161.387 95.2949V90.6406Z" fill="black"/>
<path d="M167.903 25.4793C167.903 25.4793 167.903 24.5484 168.834 24.5484H186.521C186.521 24.5484 187.452 24.5484 187.452 25.4793V43.1659C187.452 43.1659 187.452 44.0968 186.521 44.0968H168.834C168.834 44.0968 167.903 44.0968 167.903 43.1659V25.4793Z" fill="black"/>
<path d="M167.903 188.382C167.903 188.382 167.903 187.452 168.834 187.452H180.005C180.005 187.452 180.936 187.452 180.936 188.382V193.037C180.936 193.037 180.936 193.968 180.005 193.968H168.834C168.834 193.968 167.903 193.968 167.903 193.037V188.382Z" fill="#000A0D"/>
<path d="M174.419 64.576C174.419 64.576 174.419 63.6452 175.35 63.6452H180.004C180.004 63.6452 180.935 63.6452 180.935 64.576V69.2304C180.935 69.2304 180.935 70.1613 180.004 70.1613H175.35C175.35 70.1613 174.419 70.1613 174.419 69.2304V64.576Z" fill="black"/>
<path d="M174.419 84.1244C174.419 84.1244 174.419 83.1935 175.35 83.1935H180.004C180.004 83.1935 180.935 83.1935 180.935 84.1244V88.7788C180.935 88.7788 180.935 89.7097 181.866 89.7097H186.52C186.52 89.7097 187.451 89.7097 187.451 90.6406V95.2949C187.451 95.2949 187.451 96.2258 186.52 96.2258H175.35C175.35 96.2258 174.419 96.2258 174.419 95.2949V84.1244Z" fill="#000A0D"/>
<path d="M180.936 77.6083C180.936 77.6083 180.936 76.6774 181.866 76.6774H193.037C193.037 76.6774 193.968 76.6774 193.968 77.6083V82.2627C193.968 82.2627 193.968 83.1935 193.037 83.1935H181.866C181.866 83.1935 180.936 83.1935 180.936 82.2627V77.6083Z" fill="#000A0D"/>
<path d="M180.936 168.834C180.936 168.834 180.936 167.903 181.866 167.903H193.037C193.037 167.903 193.968 167.903 193.968 168.834V173.488C193.968 173.488 193.968 174.419 193.037 174.419H188.383C188.383 174.419 187.452 174.419 187.452 175.35V180.005C187.452 180.005 187.452 180.935 186.521 180.935H181.866C181.866 180.935 180.936 180.935 180.936 180.005V168.834Z" fill="#000A0D"/>
<path d="M187.451 64.576C187.451 64.576 187.451 63.6452 188.382 63.6452H199.553C199.553 63.6452 200.483 63.6452 200.483 64.576V75.7465C200.483 75.7465 200.483 76.6774 199.553 76.6774H194.898C194.898 76.6774 193.967 76.6774 193.967 75.7465V71.0922C193.967 71.0922 193.967 70.1613 193.036 70.1613H188.382C188.382 70.1613 187.451 70.1613 187.451 69.2304V64.576Z" fill="#000A0D"/>
<path d="M187.451 188.382C187.451 188.382 187.451 187.452 188.382 187.452H193.036C193.036 187.452 193.967 187.452 193.967 188.382V199.553C193.967 199.553 193.967 200.484 193.036 200.484H188.382C188.382 200.484 187.451 200.484 187.451 199.553V188.382Z" fill="#000A0D"/>
<path d="M193.968 84.1244C193.968 84.1244 193.968 83.1935 194.899 83.1935H199.553C199.553 83.1935 200.484 83.1935 200.484 84.1244V88.7788C200.484 88.7788 200.484 89.7097 199.553 89.7097H194.899C194.899 89.7097 193.968 89.7097 193.968 88.7788V84.1244Z" fill="black"/>
<path d="M193.968 162.318C193.968 162.318 193.968 161.387 194.899 161.387H199.553C199.553 161.387 200.484 161.387 200.484 162.318V166.972C200.484 166.972 200.484 167.903 199.553 167.903H194.899C194.899 167.903 193.968 167.903 193.968 166.972V162.318Z" fill="black"/>
<path d="M193.968 175.35C193.968 175.35 193.968 174.419 194.899 174.419H199.553C199.553 174.419 200.484 174.419 200.484 175.35V186.521C200.484 186.521 200.484 187.452 199.553 187.452H194.899C194.899 187.452 193.968 187.452 193.968 186.521V175.35Z" fill="#000A0D"/>
</g>
<rect x="2.5" y="2.5" width="207" height="207" rx="12.5" stroke="white" stroke-width="5"/>
<defs>
<clipPath id="clip0">
</clipPath>
</defs>
</svg>
